<svg id="Layer_1" data-name="Layer 1" xmlns="http://www.w3.org/2000/svg" viewBox="0 0 234.23 91.3"><defs><style>.cls-1{fill:#bc9038;}.cls-2{fill:#a27d35;}.cls-3{fill:#8a6326;}.cls-4{fill:#9c722a;}.cls-5{fill:#634b1d;}.cls-6{fill:#070709;}.cls-7{fill:#130d0a;}.cls-8{fill:#1a1e31;}.cls-9{fill:#18171c;}.cls-10{fill:#b38839;}.cls-11{fill:#5a3615;}.cls-12{fill:#673313;}.cls-13{fill:#c9b088;}.cls-14{fill:#c09546;}.cls-15{fill:#583a14;}.cls-16{opacity:0.73;}.cls-17{fill:#253654;}.cls-18{fill:#464e51;}.cls-19{fill:#c8ac6d;}.cls-20{fill:#41413c;}.cls-21{fill:#d0c9c1;}.cls-22{fill:#bf9348;}.cls-23{fill:#98783d;}.cls-24{fill:#0e0b09;}.cls-25{fill:#3b3527;}</style></defs><path class="cls-1" d="M359,232.62l-92.71,2.93a151.46,151.46,0,0,0-15.19,1.25L204.73,243a83.15,83.15,0,0,1-13.11.35L163,241.92c-6.24.52-13.88-13.5-14.43-19.73l-.05-.55a11,11,0,0,1,10-11.91l1.11-.09a56.92,56.92,0,0,0,43-25.49l.31-.48a25.07,25.07,0,0,1,18.89-11.23l80.55-6.68a21.54,21.54,0,0,1,14.54,4.1l9.73,7.14a91.55,91.55,0,0,0,10.73,6.8,52.13,52.13,0,0,0,28.34,6h0c6.29-.52,13.52,13.13,14,19.42l2,14.29C382.23,229.83,365.34,232.1,359,232.62Z" transform="translate(-148.2 -163.95)"/><path class="cls-2" d="M358.51,234.86l-91.57,2.9q-7.53.24-15,1.23l-45.83,6.14a83.58,83.58,0,0,1-13,.35l-28.31-1.43c-6.16.51-13.71-13.34-14.25-19.49l0-.54a10.87,10.87,0,0,1,9.91-11.77l1.1-.09A56.23,56.23,0,0,0,204,187l.3-.47A24.76,24.76,0,0,1,223,175.43l79.56-6.6a21.26,21.26,0,0,1,14.36,4l9.6,7.05a93.24,93.24,0,0,0,10.6,6.72,51.73,51.73,0,0,0,28,6h0c6.21-.52,13.35,13,13.86,19.17l2,14.11C381.41,232.11,364.73,234.34,358.51,234.86Z" transform="translate(-148.2 -163.95)"/><path class="cls-3" d="M358.47,232.44l-89.63,5.48q-7.36.45-14.72,1.21L209,243.85c-4.22.39-8.46.64-12.67.75l-27.6.71c-6,.5-12.77-5-13-7.54l0-.23c-.23-2.49,4.37-4.93,10.24-5.41L167,232c17-1.41,32.71-6,42.64-12.57l.32-.21c4.38-2.88,11.29-4.92,18.74-5.54l78.07-6.48a40.85,40.85,0,0,1,13.84,1l9.06,2.52c3.19.89,6.55,1.67,10,2.34a106,106,0,0,0,27.09,1.21h0c6.1-.51,12.45,4.83,12.66,7.42l1.26,5.85C381,230.22,364.56,231.93,358.47,232.44Z" transform="translate(-148.2 -163.95)"/><path class="cls-4" d="M198.55,203c-.59,2.72-3.28,4.11-5.65,5.13-3.51,1.51-7.21,2.66-10.83,3.86q-5.91,1.95-11.9,3.64c-3.29.93-8,1.37-10.06,4.47s.08,7.16,1.59,10.13a16.79,16.79,0,0,0,6,7.1,10.89,10.89,0,0,0,10,.28c3.2-1.36,5.89-3.73,9.18-4.9A18.5,18.5,0,0,1,197,232c3.69.79,6.55,3,10,4.46,3.87,1.64,7.94,1.32,12,.71,4.26-.64,8.51-1.38,12.76-2.07,16.71-2.72,33.57-5.2,50.54-4.54,8.06.31,16.11,1.28,24.19.84a53.44,53.44,0,0,0,12-1.9c3.74-1.08,7.33-2.93,11.22-3.48,3.59-.51,6.82.84,10,2.42a44.37,44.37,0,0,0,10.4,4.17c7.52,1.64,15.44.63,22.67-1.86a33.19,33.19,0,0,0,5.29-2.12,4.47,4.47,0,0,0,2.23-4.78,57.87,57.87,0,0,0-2.55-11.33,59.51,59.51,0,0,0-4.73-10.6c-1.92-3.35-4.11-6.91-7.91-8.29-3.63-1.33-8-.48-11.69-.12-4.16.39-8.31.88-12.45,1.42-8.35,1.11-16.67,2.44-25,3.8-16.42,2.7-32.84,5.51-49.46,6.6-17.2,1.14-34.38,0-51.5-1.73-4.2-.42-8.39-.88-12.59-1.33a2.53,2.53,0,0,0-2.5,2.5,2.55,2.55,0,0,0,2.5,2.5c16.52,1.78,33.09,3.56,49.73,3.55,16.27,0,32.43-2.05,48.48-4.56s31.73-5.44,47.73-7.23c3.89-.44,7.83-.94,11.74-1a7.08,7.08,0,0,1,4.59,1,13.1,13.1,0,0,1,3,3.75A54.32,54.32,0,0,1,375.1,223c.06.35.12.71.16,1.07a1.84,1.84,0,0,0,.05.53c.23.47.24-.45.31-.35l-1.78.77q-2.65,1-5.39,1.83a40.62,40.62,0,0,1-10.51,1.57,29.06,29.06,0,0,1-10.28-1.71c-3.28-1.2-6.25-3.11-9.49-4.42a18.35,18.35,0,0,0-11.13-.84c-3.7.83-7.14,2.5-10.8,3.48-7.41,2-15.18,1.72-22.77,1.28a231.35,231.35,0,0,0-24.13-.59c-8.32.36-16.59,1.32-24.82,2.48s-16.2,2.54-24.29,3.84c-3.53.57-7.32,1.36-10.81.14a31.64,31.64,0,0,1-4.62-2.4,24.89,24.89,0,0,0-5.24-2.21,24,24,0,0,0-10.8-.42,28.13,28.13,0,0,0-9.58,4.12c-2.34,1.44-5.21,3.33-8.07,2.28-2.39-.88-3.9-3.4-5-5.56a25.7,25.7,0,0,1-1.71-3.92c-.15-.44-.32-.84,0-1.18a2.94,2.94,0,0,1,1.23-.67c1.68-.62,3.51-1,5.24-1.45q2.88-.81,5.74-1.67,5.73-1.72,11.37-3.71c3.32-1.16,6.84-2.22,9.89-4a11.07,11.07,0,0,0,5.56-6.91c.68-3.14-4.14-4.48-4.82-1.33Z" transform="translate(-148.2 -163.95)"/><path class="cls-4" d="M163.53,220.55c-1.52,2.2.59,4.94,3,5,2.69.07,3.7-2.63,3.86-4.85h-5a19.46,19.46,0,0,1-.75,6.21c-.79,2.76,3.1,4.33,4.57,1.93l4-6.45-4.66-1.27a16.37,16.37,0,0,1-1.34,7.48,2.58,2.58,0,0,0,.9,3.43,2.53,2.53,0,0,0,3.42-.9l3.71-8.2L170.61,221l-2,7.66c-.58,2.25,2.54,4.48,4.18,2.44l2.43-3-4.18-2.44-1.53,5.24a2.54,2.54,0,0,0,1.75,3.08,31.4,31.4,0,0,0,23.46-3.33,2.51,2.51,0,0,0-1.26-4.65l-12.28,0,1.27,4.66A26.54,26.54,0,0,1,194,228.21l-.66-4.91a97.63,97.63,0,0,1-18.14,2.87l.67,4.91a43.86,43.86,0,0,1,11.47-2.64l-.66-4.91a35.83,35.83,0,0,1-9.43,1.85l1.26,4.66a51.35,51.35,0,0,1,9.45-4.32,2.5,2.5,0,0,0-1.33-4.82l-14.16,2.28,1.92,4.57a43.92,43.92,0,0,1,13.12-5.26,2.5,2.5,0,1,0-1.33-4.82,15.58,15.58,0,0,1-4.47-.07l1.1,4.18a17.35,17.35,0,0,1,7.71-4.19l-1.33-4.82a35.86,35.86,0,0,1-11.6,2.1l.66,4.91a15.52,15.52,0,0,1,5.59-.6L181.46,216c.17-.42.34-.18-.07-.31l.59,4.57a73.12,73.12,0,0,1,23-7.13L203,208.58a47.31,47.31,0,0,1-18,3.8c-3.12.05-6.3.05-9.21,1.34a9.35,9.35,0,0,0-5.43,6.08A2.52,2.52,0,0,0,172.8,223a55,55,0,0,0,33.61-14.13l-3.92-3a31,31,0,0,1-15,13.12l2.43,4.18a16.93,16.93,0,0,1,11-4.66l-2.16-3.76a6.4,6.4,0,0,1-3,2.64,2.57,2.57,0,0,0-1.74,3.07,2.53,2.53,0,0,0,3.07,1.75l5.91-1.48c2.66-.67,2.19-5.23-.66-4.91l-19.28,2.11a2.57,2.57,0,0,0-2.5,2.5,2.54,2.54,0,0,0,2.5,2.5l18.37.72-1.26-4.66a25.41,25.41,0,0,1-7.59,2.38c-2.79.44-2.12,5,.66,4.91l9.57-.37v-5l-7.88.71c-3.17.28-3.27,4.88,0,5l13.32.49-.66-4.91-10.27,1.46c-2.49.36-2.26,4.29,0,4.82a55.76,55.76,0,0,0,14.9,1.48v-5l-9.13.74a2.5,2.5,0,0,0,0,5,105.78,105.78,0,0,0,16.69.57l-.66-4.91-7.36,1.53c-2.39.5-2.38,4.32,0,4.83a27.68,27.68,0,0,0,9.21.46,2.58,2.58,0,0,0,2.5-2.5,2.53,2.53,0,0,0-2.5-2.5l-8.25-.15v5l6.7,0a2.5,2.5,0,0,0,0-5,71.94,71.94,0,0,0-13-.39,2.51,2.51,0,0,0-.67,4.91,12.74,12.74,0,0,0,9.68-.44c1.93-.84,1.43-4.21-.6-4.57a13.54,13.54,0,0,0-5.38.06c-2.81.6-2.1,4.88.66,4.91A135,135,0,0,0,231.25,231,2.51,2.51,0,0,0,233,228a2.55,2.55,0,0,0-3.07-1.74l-5.88.84,1.33,4.83L240,229.38c2.83-.49,2.09-4.91-.67-4.91l-34.2,0v5l30.52-1.82c3.19-.19,3.24-5,0-5l-30.17,0v5l33.23-1.43a2.51,2.51,0,0,0,2.45-2.17,2.47,2.47,0,0,0-1.79-2.74,232.23,232.23,0,0,0-27.2-3.23v5L245.9,223c3.23,0,3.2-4.83,0-5l-54.47-2.9v5l26.44-.41v-5L207,215.8a2.5,2.5,0,0,0,0,5,126.88,126.88,0,0,0,20.07.21c3.18-.22,3.26-5,0-5l-29.78.37c-3.22,0-3.22,4.94,0,5q19.65.35,39.29-.3l-.66-4.92a123.57,123.57,0,0,1-24,2.89l.66,4.92,16.68-3c2.81-.49,2.1-4.93-.67-4.91l-24.13.22v5L248.73,220l-.66-4.92a108,108,0,0,1-28.86,3.29l.66,4.91a214,214,0,0,1,23.83-4.42,2.57,2.57,0,0,0,2.5-2.5,2.52,2.52,0,0,0-2.5-2.5,330.43,330.43,0,0,1-38,1.86l.67,4.91a108.48,108.48,0,0,1,19.4-1l-1.26-4.66a48.75,48.75,0,0,1-11.09,3.34l2.44,4.18,3.41-3.72a2.52,2.52,0,0,0-2.43-4.17l-19.33,4,1.92,4.57,8.85-3.95a19.42,19.42,0,0,0,1.9-.78c0,.08-.51-.28-.47-.28a2.87,2.87,0,0,1,0,.89,5.54,5.54,0,0,1-.26,1.3h4.82l-1.11-4.42a2.53,2.53,0,0,0-4.18-1.1,25.71,25.71,0,0,0-4.63,6.51L209,222.5l-.18-6.23a2.51,2.51,0,0,0-2.17-2.45,2.47,2.47,0,0,0-2.75,1.79l-.52,3.65h4.82a49,49,0,0,1-1.14-10h-5l.35,6.79c.12,2.26,3.54,3.67,4.66,1.26l1.86-4-2.16,1.23,8.48.1v-5a74.7,74.7,0,0,1-16.16-.78l-.67,4.91,16.32-.24c2.74,0,3.5-4.29.67-4.91l-13-2.84-.67,4.91q11.5-.34,23,0l-.67-4.91-4.88,1.14c-2.74.64-2.16,5,.66,4.91L238,211.3c3.21-.09,3.22-5,0-5q-14.06,0-28.07,1.17a2.5,2.5,0,0,0,0,5,161.74,161.74,0,0,0,25-.2,2.56,2.56,0,0,0,2.5-2.5,2.52,2.52,0,0,0-2.5-2.5l-18.25,1c-3.19.17-3.24,5,0,5q18.69,0,37.34-1.29v-5L224,210.29a2.5,2.5,0,0,0,0,5,77.76,77.76,0,0,0,16.07-.14,2.57,2.57,0,0,0,2.5-2.5,2.53,2.53,0,0,0-2.5-2.5q-10.78,0-21.57.67a2.5,2.5,0,0,0,0,5A201.23,201.23,0,0,0,239,216c3.2-.13,3.23-5.07,0-5l-22.78.51c-3.22.07-3.23,5,0,5l52.3.14,14.94.05c3.22,0,3.22-5,0-5l-30-.17.67,4.91,12.47-4a2.51,2.51,0,0,0-.67-4.91A37.52,37.52,0,0,0,254,209c-2.68.78-2.2,4.93.66,4.91l25.37-.17-.67-4.91-41.09,8.64a2.52,2.52,0,0,0-1.74,3.07,2.54,2.54,0,0,0,3.07,1.75l26-4.89a2.5,2.5,0,0,0-1.33-4.83A220.48,220.48,0,0,0,240.54,218c-2.64.75-2.22,5,.67,4.91q13.28-.63,26.49-2.13a2.57,2.57,0,0,0,2.5-2.5,2.53,2.53,0,0,0-2.5-2.5A172.36,172.36,0,0,0,237,220.51c-2.67.66-2.19,5.15.66,4.91l32.45-2.77-.66-4.91-34.74,6.86a2.53,2.53,0,0,0-1.75,3.07,2.58,2.58,0,0,0,3.08,1.75l18.47-2.79-1.33-4.83-19.47,3.56c-2.75.5-2.15,5.15.67,4.91,13-1.11,25.92-2.22,38.92-2.79,12.74-.56,25.51-.42,38.24-1.18a182.64,182.64,0,0,0,21.63-2.47,2.49,2.49,0,0,0,1.79-2.74,2.55,2.55,0,0,0-2.46-2.17c-9.34-1.07-18.69.62-27.88,2.2-8.89,1.53-18.07,3.06-27.06,1.41l-.67,4.91,33-1.54a2.5,2.5,0,0,0,0-5q-26.81-1.8-53.69-2.07-7.72-.08-15.43,0c-3.23,0-3.21,4.89,0,5q27.09.91,54.2-.17,7.71-.3,15.4-.78c3.19-.19,3.24-4.92,0-5l-25.18-.56v5q24.9-.59,49.72-2.76,7-.63,14.06-1.38a2.5,2.5,0,0,0,0-5c-21.17-.35-42.41-.71-63.52,1.32q-9.08.87-18.09,2.36c-2.76.47-2.14,5.14.67,4.92a486.64,486.64,0,0,0,58.13-8.11c2.87-.58,2-4.77-.67-4.91a298.06,298.06,0,0,0-53.58,2.15,2.58,2.58,0,0,0-2.5,2.5,2.52,2.52,0,0,0,2.5,2.5c13.13-1.47,26.27-2.93,39.48-3.28a2.5,2.5,0,0,0,0-5,440.64,440.64,0,0,0-51.51,1.52,2.57,2.57,0,0,0-2.5,2.5,2.53,2.53,0,0,0,2.5,2.5,250.39,250.39,0,0,0,42-4.43c2.76-.53,2.15-5.06-.66-4.91l-12.88.68v5l45.34-4.1-.66-4.91a150.9,150.9,0,0,1-30.79,8l1.33,4.82c8.77-1.61,17.43-3.76,26.08-5.92l-1.93-4.57a71,71,0,0,1-18.4,9c-3.05,1-1.8,5.66,1.33,4.82q17.24-4.6,34.05-10.61a2.5,2.5,0,0,0-1.33-4.82l-19.75,3.55,1.33,4.82a108.43,108.43,0,0,1,17.19-5.2,2.5,2.5,0,0,0-1.33-4.82l-17.3,3.16,1.33,4.82,15.52-5.22a2.51,2.51,0,0,0-.66-4.91,89,89,0,0,0-10.71-.37l.66,4.91L341,201.29l-1.33-4.82a110.27,110.27,0,0,0-15.43,7.86,2.52,2.52,0,0,0,1.26,4.66,73.75,73.75,0,0,0,18.33-1.62l-1.93-4.57-26.64,15.07c-2.1,1.19-1.25,4.78,1.26,4.66a47.22,47.22,0,0,0,20.92-6.07c2.81-1.59.32-5.82-2.52-4.31l-11.17,5.92c-2.07,1.09-1.25,5,1.26,4.66a118.54,118.54,0,0,0,17-3.45L339,216.21a2.14,2.14,0,0,1-1.61,1.24c-1.92.49-2.64,3.7-.6,4.57a25.28,25.28,0,0,0,8.1,2,2.52,2.52,0,0,0,2.5-2.5,2.55,2.55,0,0,0-2.5-2.5l-10-.89a2.46,2.46,0,0,0-2.45,2.17,2.53,2.53,0,0,0,1.79,2.74,114.94,114.94,0,0,0,28.16,6.65,2.51,2.51,0,0,0,2.5-2.5,2.56,2.56,0,0,0-2.5-2.5,110.05,110.05,0,0,1-26.83-6.47l-.67,4.91,10,.89v-5a18,18,0,0,1-5.58-1.36l-.59,4.57a7.34,7.34,0,0,0,5.1-4.73c.69-1.83-1.37-3.56-3.08-3.08A110.39,110.39,0,0,1,325,217.73l1.26,4.66,11.17-5.93-2.52-4.31a41.69,41.69,0,0,1-18.4,5.38l1.26,4.66,26.65-15.07c2.54-1.44.78-5.15-1.93-4.57a68.31,68.31,0,0,1-17,1.44l1.26,4.66A102,102,0,0,1,341,201.29a2.5,2.5,0,0,0-1.33-4.82l-11.38,1.69c-2.81.41-2.11,5,.66,4.91a89,89,0,0,1,10.71.37l-.67-4.92-15.52,5.23a2.5,2.5,0,0,0,1.33,4.82l17.3-3.16-1.33-4.82a107.39,107.39,0,0,0-17.19,5.2,2.5,2.5,0,0,0,1.33,4.82l19.75-3.55-1.33-4.82q-16.8,6-34,10.61l1.33,4.82a75.15,75.15,0,0,0,19.59-9.52,2.51,2.51,0,0,0-1.92-4.57c-8.65,2.16-17.31,4.32-26.08,5.93a2.53,2.53,0,0,0-1.75,3.08,2.58,2.58,0,0,0,3.08,1.74,150.9,150.9,0,0,0,30.79-8.05,2.53,2.53,0,0,0,1.79-2.74,2.48,2.48,0,0,0-2.46-2.17l-45.34,4.1a2.58,2.58,0,0,0-2.5,2.5,2.52,2.52,0,0,0,2.5,2.5l12.88-.68-.67-4.91a241.82,241.82,0,0,1-40.71,4.25v5a440.64,440.64,0,0,1,51.51-1.52v-5c-13.21.35-26.35,1.81-39.48,3.28v5a298.06,298.06,0,0,1,53.58-2.15l-.66-4.91a476.92,476.92,0,0,1-56.8,7.93l.66,4.91c20.61-3.45,41.57-3.92,62.42-3.75,6,0,11.91.14,17.86.24v-5q-24.77,2.64-49.66,3.69-7.06.28-14.12.45a2.5,2.5,0,0,0,0,5l25.18.56v-5q-27.06,1.65-54.19,1.31-7.71-.1-15.41-.36v5q26.86-.18,53.72,1.18,7.71.39,15.4.91v-5l-33,1.54a2.51,2.51,0,0,0-2.45,2.17,2.47,2.47,0,0,0,1.79,2.74c19,3.47,37.33-5.61,56.27-3.43l-.66-4.91c-12.39,2.23-25,2.65-37.56,2.91-12.77.27-25.5.66-38.24,1.59-7.22.52-14.44,1.14-21.66,1.76l.66,4.91,19.47-3.55a2.54,2.54,0,0,0,1.75-3.08,2.57,2.57,0,0,0-3.08-1.75l-18.47,2.8,1.33,4.82,34.74-6.85c2.73-.54,2.15-5.16-.67-4.92l-32.45,2.77.67,4.91a166,166,0,0,1,29.39-4.57v-5q-13.2,1.5-26.49,2.13l.66,4.91a218.06,218.06,0,0,1,23.68-5.4l-1.33-4.83-26,4.9,1.33,4.82,41.09-8.64c2.79-.58,2.12-4.93-.66-4.91l-25.37.17.67,4.91a33,33,0,0,1,10.59-1.29l-.66-4.91-12.47,4c-2.64.85-2.23,4.9.66,4.92l30,.17v-5l-52.3-.15-14.94,0v5L239,216v-5a201.23,201.23,0,0,1-20.55-.19v5q10.77-.63,21.57-.67v-5a77.76,77.76,0,0,1-16.07.14v5L254,211.94a2.57,2.57,0,0,0,2.5-2.5,2.53,2.53,0,0,0-2.5-2.5q-18.64,1.32-37.34,1.29v5l18.25-1v-5a161.74,161.74,0,0,1-25,.2v5q14-1.22,28.07-1.17v-5l-18.09.49.67,4.91,4.88-1.14c2.81-.65,2.1-4.83-.66-4.91q-11.5-.33-23,0c-2.72.09-3.52,4.29-.66,4.91l13,2.84.66-4.91-16.32.24a2.5,2.5,0,0,0-2.45,2.17,2.45,2.45,0,0,0,1.79,2.74,80,80,0,0,0,17.49,1c3.19-.18,3.24-5,0-5l-8.48-.1a2.47,2.47,0,0,0-2.16,1.24l-1.86,4,4.66,1.27-.35-6.79c-.16-3.19-5-3.24-5,0a54.89,54.89,0,0,0,1.32,11.35c.51,2.29,4.46,2.48,4.82,0l.53-3.65-4.91-.67.18,6.23c.07,2.33,3.51,3.6,4.66,1.26a21.44,21.44,0,0,1,3.84-5.49l-4.18-1.11,1.12,4.42a2.52,2.52,0,0,0,4.82,0c.95-3.4.21-8.5-4.4-8.23-2.2.13-4.39,1.55-6.37,2.44l-6.63,3a2.47,2.47,0,0,0-1,3.12,2.53,2.53,0,0,0,2.94,1.45l19.34-4-2.44-4.18-3.41,3.71a2.52,2.52,0,0,0,2.43,4.18A53.88,53.88,0,0,0,227,219.22c2.42-1.07,1-4.58-1.26-4.66A115,115,0,0,0,205,215.77a2.5,2.5,0,0,0,.66,4.91,330.43,330.43,0,0,0,38-1.86v-5a225.71,225.71,0,0,0-25.16,4.6c-2.78.68-2.12,4.86.67,4.91a113.77,113.77,0,0,0,30.19-3.46c2.71-.69,2.18-5-.67-4.91l-44.29,1.35c-3.21.1-3.23,5,0,5l24.13-.22-.66-4.91-16.68,3c-2.79.5-2.11,5,.67,4.91A131.85,131.85,0,0,0,237.24,221c2.75-.61,2.15-5-.67-4.91q-19.63.64-39.29.3v5l29.78-.37v-5A126.88,126.88,0,0,1,207,215.8v5l10.88-1.12a2.57,2.57,0,0,0,2.5-2.5,2.53,2.53,0,0,0-2.5-2.5l-26.44.41c-3.24,0-3.21,4.83,0,5L245.9,223v-5l-33.78.09c-3.24,0-3.19,4.82,0,5a220.43,220.43,0,0,1,25.87,3l.67-4.91-33.23,1.43c-3.2.13-3.24,5,0,5l30.17,0v-5l-30.52,1.82c-3.18.19-3.24,5,0,5l34.2,0-.66-4.91L224,227.06a2.52,2.52,0,0,0-1.75,3.08,2.57,2.57,0,0,0,3.08,1.75l5.88-.85-1.33-4.82a127.75,127.75,0,0,1-19.74,1.25l.67,4.91a7.11,7.11,0,0,1,2.72-.06l-.6-4.57a7.71,7.71,0,0,1-5.82-.06l-.66,4.91a71.94,71.94,0,0,1,13,.39v-5l-6.7,0c-3.22,0-3.22,4.94,0,5l8.25.15v-5a23.43,23.43,0,0,1-7.88-.29v4.83l7.36-1.54c2.75-.57,2.15-5-.67-4.91a105.78,105.78,0,0,1-16.69-.57v5l9.13-.74a2.57,2.57,0,0,0,2.5-2.5,2.53,2.53,0,0,0-2.5-2.5,50.76,50.76,0,0,1-13.57-1.3v4.82L209,227a2.5,2.5,0,0,0-.67-4.91L195,221.56v5l7.88-.71a2.56,2.56,0,0,0,2.5-2.5,2.53,2.53,0,0,0-2.5-2.5l-9.57.37.67,4.91a29.59,29.59,0,0,0,8.78-2.88c2.33-1.18,1.07-4.57-1.26-4.66l-18.37-.72v5l19.28-2.11-.67-4.91-5.91,1.48,1.33,4.82a12,12,0,0,0,6-4.94,2.52,2.52,0,0,0-2.16-3.76,22.3,22.3,0,0,0-14.58,6.12c-1.71,1.63,0,5.14,2.43,4.18a36.45,36.45,0,0,0,18-15.42c1.47-2.51-1.85-4.91-3.92-3A49.59,49.59,0,0,1,172.8,218l2.41,3.17c.52-2,2.53-3,4.45-3.42,2.77-.6,5.73-.25,8.55-.47a53.67,53.67,0,0,0,17.35-4.35,2.46,2.46,0,0,0,1-3.12,2.57,2.57,0,0,0-3-1.45A77.39,77.39,0,0,0,179.46,216c-2,1-1.31,3.93.6,4.57,2.7.9,5.19-.71,6.22-3.18.67-1.61-1-3.07-2.41-3.17A20,20,0,0,0,177,215c-2.66.78-2.21,4.94.67,4.91a40.4,40.4,0,0,0,12.93-2.28c3-1.06,1.83-5.62-1.33-4.82a22.4,22.4,0,0,0-9.91,5.47c-1.27,1.2-.77,3.87,1.1,4.18a23.35,23.35,0,0,0,7.13.07l-1.33-4.82a48.09,48.09,0,0,0-14.31,5.76,2.5,2.5,0,0,0-1,3.12,2.53,2.53,0,0,0,2.94,1.45L188,225.72l-1.33-4.82A58.64,58.64,0,0,0,176,225.72c-2.06,1.2-1.27,4.8,1.27,4.66a41,41,0,0,0,10.75-2,2.51,2.51,0,0,0,1.8-2.74,2.48,2.48,0,0,0-2.46-2.17,48.79,48.79,0,0,0-12.8,2.82,2.51,2.51,0,0,0-1.79,2.74,2.47,2.47,0,0,0,2.45,2.17,105.08,105.08,0,0,0,19.47-3c2.75-.71,2.14-4.87-.67-4.91a32.28,32.28,0,0,0-14.1,3.09c-2.33,1.08-1.07,4.65,1.26,4.66l12.28,0-1.27-4.66a26.19,26.19,0,0,1-19.6,2.82l1.74,3.07,1.53-5.24c.66-2.26-2.56-4.44-4.18-2.43l-2.42,3,4.18,2.43,2-7.66a2.5,2.5,0,0,0-4.57-1.92l-3.71,8.19,4.32,2.53a21.84,21.84,0,0,0,2-10,2.52,2.52,0,0,0-4.66-1.26l-3.94,6.45,4.56,1.93a23.76,23.76,0,0,0,.93-7.54,2.5,2.5,0,0,0-5,0,2.76,2.76,0,0,0-.07.45c.16.7,2.22-1.5,2.63.38v1.33l-.09.21a2.51,2.51,0,0,0-.9-3.42,2.54,2.54,0,0,0-3.42.9Z" transform="translate(-148.2 -163.95)"/><path class="cls-4" d="M347.94,205.21a17.2,17.2,0,0,1-3.36,9.66l4.57.6a26.08,26.08,0,0,1,.36-9.28,2.51,2.51,0,0,0-4.57-1.92,10.13,10.13,0,0,1-2.44,2.62l3.93,3a11.16,11.16,0,0,1,3.49-4.49l-3-3.93a108.9,108.9,0,0,1-17,12c-2.79,1.61-.29,5.88,2.53,4.32a122.45,122.45,0,0,1,13.31-6.42l-1.92-4.57L334,212.74c-2.37,1.42-.85,5.45,1.92,4.57a70.45,70.45,0,0,0,17.19-8.17c1.42-.93,1.83-3.5,0-4.32L349,203l.9,3.42a19.51,19.51,0,0,1,3.6-3.83,2.52,2.52,0,0,0,.39-3,2.62,2.62,0,0,0-2.82-1.15l-9.82,1.76,2.43,4.18a20,20,0,0,1,10.52-4.18,17.28,17.28,0,0,1,5.37.22,2.64,2.64,0,0,1,2.22,2.92c0,2.07-1.27,4.06-2.23,5.82-1.06,1.92-2.23,3.79-3.44,5.63-.69,1.05-1.39,2.09-2.1,3.13-.27.39-.54.77-.81,1.17a3.52,3.52,0,0,0-.3.45c-.53.46-.25.48.84.08,0-.17-1.05-.7-1.21-.82l-1.37-1L348,215.55c-2.32-1.65-5.09,2-3,3.92a1.17,1.17,0,0,1,.52.88l1.24-2.15c-.76.39-1.85,1.1-2.76,1-.36,0-.19,0-.6-.23-.11-.07,0,.62.05-.11l-3.16,2.41a36.11,36.11,0,0,1,7.66,4.14,2.5,2.5,0,0,0,3-.4,70.25,70.25,0,0,0,9.77-15.62,2.59,2.59,0,0,0-.39-3,2.5,2.5,0,0,0-3-.4,79.92,79.92,0,0,1-10.89,6.6l3.42,3.43A48.64,48.64,0,0,1,359,202.37l-4.27-1.77a21.84,21.84,0,0,1-.91,8.5l4.91.66a9.31,9.31,0,0,1,2-4.74L356,203.75c.25,2.93.4,5.85.43,8.78,0,2.32,3.57,3.62,4.66,1.27l5.58-12.05a2.53,2.53,0,0,0-2.16-3.76,31.41,31.41,0,0,0-8.61,1.37c-2.28.7-2.49,4.23,0,4.82a6.71,6.71,0,0,0,3.79-.15c1.19-.4,2.3-1.14,3.53-1.44,1.83-.45,3.34,1,4,2.58,1,2.33,1,5.14,1.05,7.63a29.77,29.77,0,0,1-.53,7.3c-.37,1.53-1.14,3.58-2.89,3.78a3.72,3.72,0,0,1-3.17-1.92,3.3,3.3,0,0,1,1.16-4,4.74,4.74,0,0,1,2.26-1,4.62,4.62,0,0,1,.91,0c.21,0-.24-.26-.25-.28a2.32,2.32,0,0,1,.09.78,3.05,3.05,0,0,1-1.21,2.44,3.16,3.16,0,0,1-1.28.54c-.22,0-1.27-.14-1.38-.06l.4.86c.14.95.34,1.14.59.57a5.21,5.21,0,0,0,.67-.74c.49-.54,1-1.06,1.52-1.56a27.29,27.29,0,0,1,3.53-2.91,2.5,2.5,0,0,0-2.53-4.32l-9.58,4.58,2.53,4.31a46.68,46.68,0,0,0,12.23-12l-4.57-1.93c-1,3.07-3.63,5.53-5.69,7.93L353.59,224l4.27,1.77c-.22-2.07,1.29-3.7,2.45-5.27a50.7,50.7,0,0,0,3.63-5.65,52.08,52.08,0,0,0,5-12.92L364.72,203a46,46,0,0,1,8.46,16c.44,1.48.81,3,1.1,4.49a11.83,11.83,0,0,1,.23,1.66l-.1.39c.13-.21.16-.26.08-.16s.94,0,.94,0a9.71,9.71,0,0,0-.74-1.48,16.2,16.2,0,0,1-.65-2.29,15.89,15.89,0,0,1-.21-4.72,2.51,2.51,0,0,0-2.5-2.5,2.56,2.56,0,0,0-2.5,2.5,20,20,0,0,0,.53,6.68c.49,1.93,1.24,4.21,2.78,5.56a4.25,4.25,0,0,0,6.14-.56c1.55-1.85,1.25-4.23.82-6.44a51.63,51.63,0,0,0-10.84-22.74c-1.2-1.46-3.77-.61-4.18,1.1a46.87,46.87,0,0,1-5.1,12.86c-1.16,2-2.51,3.81-3.85,5.68s-2.52,4.19-2.27,6.63a2.55,2.55,0,0,0,1.53,2.29,2.47,2.47,0,0,0,2.73-.52l8.19-9.59c2.47-2.89,5.1-5.7,6.33-9.38a2.48,2.48,0,0,0-1.45-3,2.54,2.54,0,0,0-3.12,1,39.91,39.91,0,0,1-10.44,10.21,2.5,2.5,0,0,0,2.53,4.31l9.58-4.57-2.53-4.32a36.86,36.86,0,0,0-4.69,3.84c-1.42,1.38-3.21,3-3.56,5-.88,5,6.22,4.9,9.06,3.2,3.25-1.95,5.18-6.87,3.06-10.32s-7.71-2-10.33.14a8.26,8.26,0,0,0-2.73,9.51,8.57,8.57,0,0,0,7.94,5.24c8.64-.41,8.6-12.09,8.29-18.24-.23-4.41-1.06-9.06-4.95-11.75a7.77,7.77,0,0,0-6.05-1.2,17.37,17.37,0,0,0-3.09,1.21,3.24,3.24,0,0,1-1.93.48v4.82a26.4,26.4,0,0,1,7.28-1.19l-2.16-3.76-5.58,12,4.66,1.26c0-2.93-.18-5.85-.43-8.78a2.53,2.53,0,0,0-4.66-1.26,14.12,14.12,0,0,0-2.64,7.27c-.26,2.9,4.1,3.25,4.91.66a25.69,25.69,0,0,0,1.09-9.82c-.18-2-2.67-3.44-4.27-1.77a53.22,53.22,0,0,0-9.93,14.6,2.52,2.52,0,0,0,3.42,3.42,80.64,80.64,0,0,0,10.9-6.6l-3.43-3.42a65.82,65.82,0,0,1-9,14.61l3-.39a41.8,41.8,0,0,0-8.86-4.64c-1.6-.62-3.1.94-3.17,2.41a5.26,5.26,0,0,0,3.81,5.07c2.45.79,4.88-.27,7-1.38a2.44,2.44,0,0,0,1.24-2.16,6.26,6.26,0,0,0-2-4.41l-3,3.92a57.47,57.47,0,0,0,5.71,4c2.37,1.27,4.48.21,5.93-1.8a94.86,94.86,0,0,0,7.38-11.71c2-3.89,3.56-8.78.35-12.54-2.66-3.12-8-3.06-11.7-2.58a26,26,0,0,0-13,5.53,2.49,2.49,0,0,0-.39,3,2.59,2.59,0,0,0,2.82,1.15l9.82-1.75L349.92,199a24.26,24.26,0,0,0-4.39,4.83,2.5,2.5,0,0,0,.89,3.42l4.17,1.87v-4.32a65.48,65.48,0,0,1-16,7.67l1.93,4.57,9.83-5.91a2.5,2.5,0,0,0,1-3.12,2.47,2.47,0,0,0-2.94-1.45,132.17,132.17,0,0,0-14.52,6.92l2.53,4.32a117.5,117.5,0,0,0,18-12.78c2.12-1.83-.73-5.62-3-3.93a16.25,16.25,0,0,0-5.29,6.28,2.51,2.51,0,0,0,3.93,3,13.63,13.63,0,0,0,3.22-3.63l-4.57-1.93a33.06,33.06,0,0,0-.36,11.94,2.44,2.44,0,0,0,2.07,1.79,2.6,2.6,0,0,0,2.5-1.19,21.94,21.94,0,0,0,4-12.19c.1-3.21-4.9-3.21-5,0Z" transform="translate(-148.2 -163.95)"/><path class="cls-5" d="M207.49,235.21c1.11,3.52,4.88,4.51,8.11,5.08a96.85,96.85,0,0,0,12.49,1.3l.28-1.86a71.74,71.74,0,0,1-11.06,2.13c-1.81.2-3.62.33-5.44.4l-1.56,0c-.46,0-.55.11-.67-.22a5.34,5.34,0,0,1,0-1.55c0-.5,0-1,.05-1.51l-2.59.92c.38.28.42,1,.6,1.42a2.68,2.68,0,0,0,1,1.15,5.35,5.35,0,0,0,3.06.73,47.9,47.9,0,0,0,8.66-1.21c.75-.15,1.71-1,.89-1.68A6.4,6.4,0,0,0,217,239c-.59,0-1.53.45-1.62,1.1s.8.84,1.31.83a3.66,3.66,0,0,1,2.29,1l.89-1.68a48.26,48.26,0,0,1-7.27,1.06,2.14,2.14,0,0,1-2-.72c-.5-.8-.41-1.59-1.25-2.21-.65-.48-2.53,0-2.59.93-.09,1.68-.66,4.53,1.58,4.89a16.81,16.81,0,0,0,3.25,0c1.17,0,2.34-.11,3.5-.2a76,76,0,0,0,13.79-2.47c.47-.12,1.15-.47,1.22-1s-.48-.82-.93-.83a97.59,97.59,0,0,1-10.94-1c-2.88-.45-6.78-.92-7.81-4.18-.38-1.21-3.27-.41-2.9.78Z" transform="translate(-148.2 -163.95)"/><path class="cls-5" d="M270.1,237.39c8.25-.5,16.5-1,24.77-1.14q3.11,0,6.21,0a35.38,35.38,0,0,0,5.25-.06,6.36,6.36,0,0,0,3.7-1.56,2,2,0,0,0,0-3c-.51-.4-2.51.2-2.79.75-.56,1.11-2.92,1.12-4.06,1.32-1.5.25-3,.43-4.53.55a54.28,54.28,0,0,1-9.54-.09l-2.14,1.09,19.38,0,1.89-1.11-2,0-.47.84,2.2-.83c.42-.16,1.55-.77.46-.84l-.86,0c-.29,0-2.84.64-2.32,1,1,.76,2.71.23,3.71-.29,1.43-.76,1.49-2.05,1.27-3.52l-2.82.86a5.82,5.82,0,0,1,1.4,4.56c0,.28,2.81.05,2.9-.78a6,6,0,0,0-1.56-4.74c-.35-.39-2.91.28-2.82.87a5.6,5.6,0,0,1,.09,1.58,1.44,1.44,0,0,1-.19.72c1,.16,1.28.09.76-.22l-2.32,1,.87.05.46-.83-2.2.83c-.36.13-1.58.85-.46.83l2,0a3.73,3.73,0,0,0,2-.55c.39-.29.48-.56-.15-.56l-19.38,0a4.1,4.1,0,0,0-1.91.48c-.17.1-.84.56-.23.61a59.92,59.92,0,0,0,13-.13A64.16,64.16,0,0,0,306,234c1.41-.32,3.33-.72,4.05-2.14l-2.79.75a1.4,1.4,0,0,1,.52,1.35c-.09.7-.39,1.14-1,1.21a44.11,44.11,0,0,1-5-.06q-5.1,0-10.19.17c-6.73.22-13.45.63-20.17,1-.5,0-1.66.21-1.95.67s.26.43.67.41Z" transform="translate(-148.2 -163.95)"/><path class="cls-5" d="M316.49,235.51l1.35-.22,0-1.7a3.38,3.38,0,0,1-3-.5l-.55,1.43a10.9,10.9,0,0,0,5.46-4.8c1.28-2.42,1.54-5.3,3.83-7.08a15.06,15.06,0,0,1,6.81-2.49,14,14,0,0,1,6.77.27,6.5,6.5,0,0,1,2.61,1.67,24.71,24.71,0,0,1,2,3.29c1.52,2.29,4.28,2.35,6.77,2.36,6.59,0,13.18-.15,19.75-.63,4.67-.35,10.84-1.24,12.68-6.29l-2.6.91c1.34,1,1.35,3.1.68,4.52-.83,1.76-2.74,2.64-4.47,3.27A72.58,72.58,0,0,1,361,232.84c-2.33.36-4.68.64-7,.86-2.14.2-4.81.75-6.78-.33a3,3,0,0,1-1-4.74c1.52-1.67,4.1-1.14,6.08-.83l.28-1.53a46.37,46.37,0,0,1-13.92,4.08l-.35,1.78,13.06-2.27,0-1.7-7.67,2.08c-1.34.36-1.71,1.9,0,1.7,4.73-.55,9.44-1.34,14.1-2.34l-.44-1.63a100.5,100.5,0,0,0-12.43,4c-.9.35-1.23,1.6.05,1.58a65.59,65.59,0,0,0,13.75-1.72c1.37-.33,1.69-1.91,0-1.71A92.64,92.64,0,0,0,344.3,233c-1,.29-1.87,1.5-.33,1.71a29.43,29.43,0,0,0,12.65-1.06c.91-.28,2-1.69.33-1.71a14.14,14.14,0,0,0-5.74,1.1c-.95.39-1.19,1.5.05,1.58a28.4,28.4,0,0,0,12.63-2.08c1-.4,1.18-1.48-.05-1.58a33.86,33.86,0,0,0-12.34,1.25c-1.37.41-1.68,1.76.05,1.71A44.86,44.86,0,0,0,365,231.31c1.33-.47.87-1.69-.42-1.57q-8.32.76-16.62,1.86c-.54.07-1.55.38-1.63,1.05s.8.77,1.28.73a93.17,93.17,0,0,0,15.9-2.95c1-.27,1.94-1.66.32-1.72q-7.05-.26-14.1-.11c-.62,0-1.61.18-1.91.82s.23,1,.82,1a53.75,53.75,0,0,0,9.72-1.06c1-.21,1.87-1.62.33-1.71a82.84,82.84,0,0,0-20.79,1.4c-1,.2-1.88,1.66-.32,1.71a152.87,152.87,0,0,0,16.16-.35c.52,0,1.41-.36,1.58-.93s-.35-.86-.87-.86l-8.21,0-.71,1.79L365,228.5c.53-.05,1.41-.35,1.58-.93s-.35-.87-.87-.86a9.63,9.63,0,0,0-4.76,1.32c-1.12.66-.2,1.48.75,1.4a51.27,51.27,0,0,0,8-1.33c1.36-.34,1.69-1.88-.05-1.71a55,55,0,0,0-8.71,1.61c-1,.27-1.92,1.63-.32,1.72a47.17,47.17,0,0,0,11.49-.87c1.4-.27,1.66-1.86-.05-1.7a66.38,66.38,0,0,0-13.08,2.56c-1,.3-1.92,1.56-.33,1.71A30.92,30.92,0,0,0,371.39,230c.46-.15,1.27-.48,1.23-1.09s-.83-.68-1.27-.61a16.23,16.23,0,0,0-6.09,2.27c-1.11.71-.21,1.45.75,1.4a16.85,16.85,0,0,0,6.27-1.57c.43-.2,1.05-.63.8-1.17s-1.17-.42-1.61-.33L360.91,231c-1.4.28-1.67,1.88,0,1.7a82.56,82.56,0,0,0,9.77-1.61c1-.22,1.9-1.65.33-1.71l-1.37-.05.05,1.58,9-3.39-1.77-1a5.71,5.71,0,0,1-2.43,1.8l1.4,1.11,3-3.26a.64.64,0,0,0-.3-1.15,2.29,2.29,0,0,0-2.05.55l-2.51,2.29,2.36.61,2.81-3.43c1-1.2-1-1.34-1.78-1a35.91,35.91,0,0,1-9,2.9l.74,1.4a3.18,3.18,0,0,1,2.46-.7l.65-1.66a80.17,80.17,0,0,1-25.76,3.3c-.61,0-1.62.19-1.91.82s.24,1,.82,1a84.84,84.84,0,0,0,27.29-3.46c.61-.19,2.05-1.45.65-1.67a8.06,8.06,0,0,0-6,1.38c-.95.7-.33,1.59.75,1.4a42.76,42.76,0,0,0,10.52-3.31l-1.78-1-2.81,3.43c-1.15,1.42,1.63,1.27,2.36.61l2.5-2.3-2.35-.6-3,3.26c-.89,1,.64,1.38,1.4,1.12a9.79,9.79,0,0,0,4.35-2.82c1-1.23-1.07-1.26-1.78-1l-9,3.4c-1,.36-1.19,1.53,0,1.58l1.37,0,.33-1.71a78.29,78.29,0,0,1-9,1.46l0,1.7,10.56-2.12-.81-1.5a12.33,12.33,0,0,1-4.73,1.16l.74,1.4A10.52,10.52,0,0,1,371,230l-.05-1.7a27,27,0,0,1-11.28,1.3l-.32,1.71a61.87,61.87,0,0,1,12.29-2.41l0-1.71a40.65,40.65,0,0,1-10,.7l-.32,1.71a48.43,48.43,0,0,1,7.92-1.46l0-1.7a45.82,45.82,0,0,1-7.17,1.18l.74,1.4a3.72,3.72,0,0,1,1.84-.54l.72-1.79-19.43,1.87c-.53,0-1.41.35-1.59.93s.35.86.87.86l8.21,0,.72-1.79a147.11,147.11,0,0,1-15.43.33l-.32,1.72a76.77,76.77,0,0,1,19.26-1.23l.32-1.72a45,45,0,0,1-8.19.89l-1.09,1.8q7.07-.15,14.11.11l.32-1.71A89,89,0,0,1,348,231.6l-.35,1.78q8.29-1.09,16.62-1.87l-.42-1.57a39.41,39.41,0,0,1-11.92,2.18l0,1.7a29.7,29.7,0,0,1,10.81-1.09l-.05-1.58a23.05,23.05,0,0,1-10.35,1.65l0,1.58a8.56,8.56,0,0,1,3.46-.66l.33-1.71a26,26,0,0,1-11.13.89l-.33,1.71a86.38,86.38,0,0,1,13.6-2.71l0-1.7a58.59,58.59,0,0,1-12.23,1.55l.05,1.58a93.85,93.85,0,0,1,11.68-3.73c.47-.12,1.4-.57,1.23-1.2s-1.21-.52-1.67-.43c-4.4.95-8.84,1.67-13.31,2.19l0,1.71,7.68-2.08c.46-.13,1.26-.5,1.23-1.09s-.84-.69-1.28-.61l-13.06,2.26c-.54.1-1.55.37-1.63,1.05s.8.79,1.28.73a51.55,51.55,0,0,0,15.46-4.5c.57-.27,1.44-1.35.27-1.53-3.85-.61-9.36-.86-11.23,3.49a3.9,3.9,0,0,0,1.18,4.64c1.66,1.38,3.84,1.59,5.92,1.52a95,95,0,0,0,14.84-1.87q3.7-.72,7.33-1.78a29.75,29.75,0,0,0,6.33-2.42,7.55,7.55,0,0,0,3.86-4.56,4.55,4.55,0,0,0-1.59-4.88c-.74-.58-2.3.1-2.59.9-1.65,4.5-8.53,4.16-12.36,4.39q-4.71.27-9.45.37a71.75,71.75,0,0,1-8.92,0c-3.05-.34-3.22-3.21-5-5.09a9.36,9.36,0,0,0-5.53-2.54,23.25,23.25,0,0,0-13.22,2.26,10.46,10.46,0,0,0-5.25,5.73c-1.14,2.95-2.1,5.61-5.23,6.91-.53.23-1.29,1-.54,1.43a6.74,6.74,0,0,0,5.69.64c.47-.15,1.27-.49,1.24-1.09s-.84-.69-1.28-.62l-1.35.22c-.54.09-1.55.37-1.63,1.05s.8.81,1.28.73Z" transform="translate(-148.2 -163.95)"/><path class="cls-5" d="M209.92,239.82c-1-3.72-2.33-7.53-5.92-9.51a20.21,20.21,0,0,0-5.63-1.84,30.17,30.17,0,0,0-6.62-.85,15.13,15.13,0,0,0-9.85,4.06,14.3,14.3,0,0,0-3.19,4.25c-.77,1.58-1,3.58-2.09,5s-3.42.86-5.06.75a7.38,7.38,0,0,0-5.33,1.28,1,1,0,0,0,.48,1.79,78,78,0,0,0,12.51.33,1.69,1.69,0,0,0,1.59-1.2,3,3,0,0,0-.75-2.74c-.94-1-3.68.21-2.65,1.3a1.56,1.56,0,0,1,.45,1.64l1.59-1.21a72.19,72.19,0,0,1-11.76-.3l.48,1.79c1.07-.85,2.66-.48,3.92-.36a10.19,10.19,0,0,0,4.46-.34c3.44-1.27,3.62-4.83,5.11-7.67a11.76,11.76,0,0,1,7.24-5.79,12.79,12.79,0,0,1,5.44-.11,36.92,36.92,0,0,1,5.68,1.25,8.51,8.51,0,0,1,4.8,3.52,20.67,20.67,0,0,1,2.2,5.75c.38,1.39,3.28.61,2.9-.78Z" transform="translate(-148.2 -163.95)"/><ellipse class="cls-6" cx="44.89" cy="78.03" rx="14.55" ry="13.28"/><ellipse class="cls-6" cx="184.16" cy="68.36" rx="14.55" ry="13.28"/><path class="cls-7" d="M305.61,170.75l-79.73,10c-5.32.31-25.21,10.69-24.9,16L198.8,202c.31,5.33,2.73,3.87,8.06,3.56L329.6,193.25c5.33-.31-3.13-5.26-3.44-10.58l4.27,6.08C330.13,183.43,310.94,170.44,305.61,170.75Z" transform="translate(-148.2 -163.95)"/><path class="cls-8" d="M300,173l-72.22,8.56c-4.82.27-22.87,8.86-22.62,13.22l-2,4.35c.25,4.35,2.44,3.15,7.27,2.87l111.15-10.71c4.83-.28-2.8-4.29-3.06-8.64l3.84,5C322.08,183.23,304.78,172.71,300,173Z" transform="translate(-148.2 -163.95)"/><path class="cls-9" d="M260.32,179.17a41,41,0,0,0,2.7,17.74,2.56,2.56,0,0,0,3.07,1.74,2.51,2.51,0,0,0,1.75-3.07,37,37,0,0,1-2.52-16.41,2.5,2.5,0,0,0-5,0Z" transform="translate(-148.2 -163.95)"/><path class="cls-10" d="M218.24,219.89c15.09-2.59,30.17-5.21,45.26-7.77s29.95-4.89,45.06-6.25c8.47-.76,17-1.2,25.47-1.2,3.22,0,3.22-5,0-5-30.74,0-61.1,5.77-91.29,11l-25.83,4.44a2.52,2.52,0,0,0-1.74,3.08,2.55,2.55,0,0,0,3.07,1.74Z" transform="translate(-148.2 -163.95)"/><path class="cls-10" d="M157.46,216a22.14,22.14,0,0,1,2.23.7c.65.25-.46-.22.18.08.19.09.39.17.58.27.35.17.68.37,1,.55.52.27-.38-.35.05,0s-.26-.43,0,.06c-.24-.43-.13-.25-.07-.09.19.54,0-.53,0,0,0,.86,0,1.71,0,2.56,0,.37,0,.74,0,1.1a2.15,2.15,0,0,1,0,.57c.31-.9-.28.48.08-.36-.2.48.36-.37,0,0,0,0,.42-.41.11-.12l-.15.08c.34-.14.39-.16.13-.06s-.43.14-.64.19c-.36.1-.72.18-1.09.25l-.65.12c-.08,0-.81.11-.21,0a21.82,21.82,0,0,1-2.55.16c-.4,0-.81,0-1.22,0l-.61,0c-.5,0,.16,0,.16,0a2.83,2.83,0,0,1-.5-.13l.29.13c-.23-.14-.19-.1.11.11-.33-.27.15.26.2.37-.19-.45,0,.48,0,0a9.19,9.19,0,0,1,0-1.05,1.46,1.46,0,0,1,0-.35l-.05.32.06-.35a8.85,8.85,0,0,1,.27-1c0-.12.07-.22.11-.34l0,.12.15-.32c.13-.26.28-.52.43-.77s.19-.37.3-.43l-.18.23a2,2,0,0,1,.22-.27,6.05,6.05,0,0,1,.61-.63c.09-.09.27-.31.39-.35-.27.21-.3.23-.08.07a3.13,3.13,0,0,1,.3-.2c.13-.08.28-.15.41-.24.28-.19-.54.13,0,0l.18-.05c.28-.07.24-.07-.11,0h.18c.29,0,.25,0-.11,0,0,.07.32,0,.35.1l-.25-.12.33.17a1.72,1.72,0,0,1,.48.31c-.26-.21-.28-.22-.06,0l.2.18c.11.1.22.21.32.32a2.91,2.91,0,0,1,.24.27c-.2-.27-.22-.29-.06-.07,0,.07.29.39.27.47l-.11-.28c0,.11.07.22.1.33.18.5,0-.53,0,0,.07-.39.08-.45,0-.18.16-.32.18-.37,0-.13.06-.07.4-.38.09-.12s-.16.15.13-.08l-.29.18-.14.07c-.25.12-.2.1.13-.05-.07.1-.41.15-.54.18l-.2.05c-.29,0-.26,0,.07,0h-.41c.32,0,.36,0,.13,0l.31.13c-.18-.12-.18-.11,0,0s.17.13,0,0a1.08,1.08,0,0,1,.34.57c.29,1.19-.85,1.77-1.86,1.61a2.56,2.56,0,0,0,3.07-1.75,2.53,2.53,0,0,0-1.74-3.08,3.56,3.56,0,0,0-4.27,2.47,3.92,3.92,0,0,0,1.65,4.32c2.27,1.64,5.94.53,7.54-1.55,1.82-2.35.61-5.51-1.43-7.28a7,7,0,0,0-4-1.88,5.92,5.92,0,0,0-3.72,1.09,11.11,11.11,0,0,0-4.23,5.44c-.81,2.15-1.12,5.4.58,7.2a5.52,5.52,0,0,0,3.76,1.46,21,21,0,0,0,3.55,0c2.53-.24,5.78-.56,7.36-2.84.89-1.27.76-2.9.75-4.37a11,11,0,0,0-.45-4.24,6,6,0,0,0-3.17-3,21.33,21.33,0,0,0-4.09-1.5,2.5,2.5,0,1,0-1.33,4.82Z" transform="translate(-148.2 -163.95)"/><path class="cls-10" d="M260.23,229.09a111.06,111.06,0,0,0,15.48-.18,57.44,57.44,0,0,0,13.61-3.24c8.23-3,16.36-7.3,25.29-7.57,3.21-.1,3.23-5.1,0-5-9.17.28-17.38,4.31-25.82,7.45a54.23,54.23,0,0,1-13.08,3.36,111.06,111.06,0,0,1-15.48.18c-3.22-.12-3.21,4.89,0,5Z" transform="translate(-148.2 -163.95)"/><path class="cls-11" d="M263.06,199c.08,7.11,0,14.23.26,21.33.19,6.12,1,12.39,4.6,17.52.61.86,3.41-.14,2.68-1.17-3.51-5-4.2-11.2-4.38-17.12-.22-7-.17-13.93-.25-20.89,0-1.29-2.92-.71-2.91.33Z" transform="translate(-148.2 -163.95)"/><path class="cls-10" d="M209.88,231.62c7,4.74,15.87,5.06,24.06,4.58a2.55,2.55,0,0,0,2.5-2.5,2.53,2.53,0,0,0-2.5-2.5c-7.35.43-15.21.36-21.54-3.89a2.5,2.5,0,1,0-2.52,4.31Z" transform="translate(-148.2 -163.95)"/><path class="cls-10" d="M228.7,228.57a13.1,13.1,0,0,0,4.12,3.32,14.7,14.7,0,0,0,5.7,1.31c4,.23,8,.33,12,.5v-5l-17.37,1.1a2.55,2.55,0,0,0-2.5,2.5,2.53,2.53,0,0,0,2.5,2.5l17.37-1.1a2.5,2.5,0,0,0,0-5l-10.93-.45a11.76,11.76,0,0,1-4.26-.68,9.18,9.18,0,0,1-3.12-2.53,2.5,2.5,0,0,0-3.53,0,2.54,2.54,0,0,0,0,3.53Z" transform="translate(-148.2 -163.95)"/><path class="cls-10" d="M354.19,214.63c7.58-.23,16.15.05,22,5.62,1.22,1.17,3.89.85,4.18-1.1a9,9,0,0,0-1-6c-1.56-2.82-5.88-.3-4.31,2.52a3.48,3.48,0,0,1,.49,2.16l4.18-1.11c-6.84-6.54-16.51-7.35-25.51-7.08-3.21.1-3.22,5.1,0,5Z" transform="translate(-148.2 -163.95)"/><path class="cls-4" d="M349.46,205.82a40.4,40.4,0,0,1-2,7.15h4.82a13.7,13.7,0,0,1-.28-1.42l.09.66a12.9,12.9,0,0,1,0-3.4l-.09.66a13.54,13.54,0,0,1,.31-1.54,2.5,2.5,0,0,0-4.82-1.33,15.18,15.18,0,0,0,0,7.69,2.51,2.51,0,0,0,2.41,1.84,2.93,2.93,0,0,0,1.26-.34,2.7,2.7,0,0,0,1.15-1.5,40.06,40.06,0,0,0,2-7.14,2.7,2.7,0,0,0-.26-1.93,2.48,2.48,0,0,0-3.42-.89,2.41,2.41,0,0,0-1.14,1.49Z" transform="translate(-148.2 -163.95)"/><path class="cls-11" d="M327.51,193.41c.92,4,1.93,8.54.28,12.48s-5.84,5.6-9,8.11c-6.58,5.16-10.46,14-7.07,22.07.26.63,3.08-.32,2.89-.77-3.56-8.55.94-17.66,8.17-22.59,3.23-2.2,6.84-4.12,8.16-8.08s.39-8.13-.5-12c-.13-.55-3,.17-2.9.78Z" transform="translate(-148.2 -163.95)"/><path class="cls-11" d="M347.43,203.89,343,204l-2.1,0a4,4,0,0,0-1.61.16c-1,.47-.29,1.72-.06,2.45l1.37,4.29c.33,1,.48,2,1.75,2,1.48,0,3-.12,4.47-.19s3-.11,4.52-.18c.79,0,1.66-.26,1.78-1.17a4,4,0,0,0-.25-1.56c-.22-.74-.46-1.46-.73-2.18a31,31,0,0,0-2-4.25c-.13-.24-.83,0-.72.19a31.28,31.28,0,0,1,2.54,5.85c.23.75,1,2.43-.2,2.7a10.05,10.05,0,0,1-1.74.07l-1.87.08-3.46.15-1.73.07a1.49,1.49,0,0,1-.86-.13,1.38,1.38,0,0,1-.55-.89c-.35-1.09-.69-2.19-1-3.28l-.52-1.63a9.32,9.32,0,0,1-.49-1.61c-.1-.75,1.27-.53,1.76-.54l1.84,0,4.06-.07c.27,0,.77-.42.28-.41Z" transform="translate(-148.2 -163.95)"/><path class="cls-12" d="M374.81,205.4a86.18,86.18,0,0,1-13.26,3.91c-.46.09-1.58.59-1.17,1.22,1.48,2.3,4.46,3.05,7,3.47a35.06,35.06,0,0,0,5,.43,40.78,40.78,0,0,0,4.82-.06,3.2,3.2,0,0,0,2.14-.9,2.52,2.52,0,0,0,.31-1.75,35.65,35.65,0,0,0-.4-4.95,2.68,2.68,0,0,0-.56-1.6,2.42,2.42,0,0,0-2-.38,27,27,0,0,0-4.42,1.13,43.17,43.17,0,0,0-9.56,4.35c-.49.3-.92,1,0,1.13,4.16.44,8.7-.39,12.58,1.51l2.05-1.42c-3-.44-6-.73-9-.9a2.65,2.65,0,0,0-1.73.57c-.25.23-.5.72,0,.88a24.51,24.51,0,0,0,7.79,1.1l1.16-1.55a8.59,8.59,0,0,1-5.16-1.47l-.79,1.09a19,19,0,0,1,3.82-1.2c.38-.08,1.18-.4,1.26-.87s-.52-.58-.87-.58q-3.51,0-7-.15v1.32a14.81,14.81,0,0,1,3.9-1.25c.23,0,2.35-.77,1.56-1.3a3,3,0,0,0-3.72.67c-.74.84,1.23.74,1.53.68l4.87-1.05.43-.09c-.34-.14-.49-.08-.45.17a7,7,0,0,1-.48.67c-.28.28-.58.55-.86.82l-.43.41c-.29.24-.29.26,0,.08l1.46-.2-.2,0,.45.2c-.62-.52-.29-1.82.22-2.33l-2.5.35a9.38,9.38,0,0,1,1.48,4.23l2.79-.94a5.41,5.41,0,0,1-1.51-1.65,1.85,1.85,0,0,1-.24-.68.9.9,0,0,1,.06-.46c-1.37-.21-1.83-.06-1.36.43.34-.11.39-.15.17-.11a1.85,1.85,0,0,1-.41,0,3.36,3.36,0,0,1-.7-.09,4.5,4.5,0,0,1-1.86-.91l-1.17,1.23,2.44-.7c.39-.11,1.43-.48,1.27-1.06s-1.27-.39-1.63-.28l-2.44.69c-.22.06-1.81.72-1.17,1.23a6.69,6.69,0,0,0,4.5,1.43c1,0,4.56-.57,3.85-2.32s-3.49-.64-4.18.44c-.92,1.44.62,3.07,1.68,3.89.64.49,2.91.11,2.8-.94a9.91,9.91,0,0,0-1.68-4.56c-.42-.63-2.11,0-2.5.36-.81.83-1.94,3-.51,3.89,1.76,1.06,3.85-1.3,4.9-2.43.4-.42.86-1.07.64-1.68-.27-.76-1.36-.75-2-.66-2,.27-4.08.86-6.08,1.29l1.52.68-1.67.42,1.57-1.3a20.36,20.36,0,0,0-5.45,1.67c-.3.14-.92.41-.89.83s.54.47.87.49q3.51.15,7,.14l.4-1.45a23.4,23.4,0,0,0-4.57,1.46c-.22.1-1.34.73-.79,1.1a11.07,11.07,0,0,0,6.69,1.92,2.42,2.42,0,0,0,1.92-.77c.34-.56-.29-.79-.76-.78a21,21,0,0,1-6.63-.9l-1.73,1.45c2.81.16,5.6.44,8.39.84a2.72,2.72,0,0,0,1.92-.45c.34-.25.68-.7.14-1-4.11-2-8.72-1.19-13.11-1.66V211a37.27,37.27,0,0,1,8.29-3.81c.74-.24,1.49-.45,2.24-.64l.85-.2.41-.09c-.33-.1-.39,0-.17.16,0,.28.17.65.21.94s.12.85.17,1.27c.1.85.17,1.7.21,2.56,0,.42,0,.85,0,1.28,0,.21,0,.43,0,.64-.14.59.26.49,1.21-.29a4.92,4.92,0,0,0-1.27,0l-1.26,0a41.21,41.21,0,0,1-4.72-.18c-2.71-.28-6-.8-7.64-3.28l-1.17,1.22a91.36,91.36,0,0,0,14-4.16c.38-.15,1.17-.61.79-1.1s-1.49-.16-1.91,0Z" transform="translate(-148.2 -163.95)"/><path class="cls-13" d="M175.56,217a7.82,7.82,0,0,0,3.23-.06,8.7,8.7,0,0,0,3.26-1.41c.14-.09.37-.32.31-.52s-.35-.26-.53-.29a14.53,14.53,0,0,0-5.38,0,3.94,3.94,0,0,0-1.1.36c-.18.1-.5.3-.57.52-.17.57.95.49,1.2.44l.57-.09.31,0c.28,0-.3,0,0,0s.74,0,1.11,0c0,0,.34,0,.16,0h.19l.54,0a11.24,11.24,0,0,1,1.14.18l-.22-.81c-.07,0-.37.22-.05,0l-.2.12-.23.12c-.3.15.27-.1,0,0l-.21.09-.14,0,.16,0-.22.06-.15,0,.2,0-.49.07c.45-.06.08,0,0,0h-.23c-.26,0,.25,0,0,0l-.3,0a4.51,4.51,0,0,1-.53-.09,2.76,2.76,0,0,0-1.07.11,2.71,2.71,0,0,0-1,.44c-.15.12-.38.3-.32.52s.36.26.54.3Z" transform="translate(-148.2 -163.95)"/><path class="cls-13" d="M151.28,217.77l5.17-.86,2.45-.41,1.36-.22a3.89,3.89,0,0,1,1.21-.17l-.6-.16c.24.16.31,1,.37,1.24a11.22,11.22,0,0,1,.24,1.41,10,10,0,0,1,.08,1.45,10.33,10.33,0,0,0-.11,1.45l0,.14a1.14,1.14,0,0,1,.34-.15c.15-.14,0,0-.2-.05-.46,0-.91-.06-1.36-.06a16.56,16.56,0,0,0-3.3.33,23.89,23.89,0,0,0-2.74.81c-.71.23-1.38.46-2-.05-1.48-1.18-1.08-3.41-.8-5l-2.79.75a2,2,0,0,1,.56,1.41c0,1.39,2.66.73,2.92-.3a4,4,0,0,1,.24-.76c0-.08.2-.28.19-.35a.76.76,0,0,1-.63.12c-.1,0-.1,0,0,.09a1.61,1.61,0,0,1,0,.58,2.5,2.5,0,0,1-.73,1,5.29,5.29,0,0,0-.95,1.25c-.23.46,0,.82.5,1a2.36,2.36,0,0,0,1.79-.34,9.06,9.06,0,0,1,3.47-1.11l-1.17-.32.08.05c.18-.2.5-.22.14-.22a6.89,6.89,0,0,0-1.18.25l-2.22.48c-.44.1-1.17.47-1.24,1s.49.75.92.77a61.52,61.52,0,0,0,8.26-.24l.34-1.82-5,.84.06,1.75,5.68-1.54c.46-.12,2-1.13.91-1.6a6.46,6.46,0,0,0-4.6-.25l.83,1.54,6.8-2.62c.38-.15,1-.6.85-1.09s-.87-.57-1.29-.53a47.09,47.09,0,0,0-7.25,1.3l1.41,1.16a4,4,0,0,1,2.06-1l-1.15-1.36a8.54,8.54,0,0,1-3.91,1.34l.76,1.44a11.36,11.36,0,0,1,3.66-1.92l-.44-1.68a14.32,14.32,0,0,1-4.84.87l.07,1.63a39.36,39.36,0,0,1,4.07-1.58c.67-.21,1.35-.41,2-.59l1.16-.29c.17,0,.34-.09.52-.12l.17,0c.06,0,.06,0,0,0l-.47-.27c.42.35.41,1.14.47,1.65a14,14,0,0,1,.11,2.15c0,.35,0,.7-.05,1.05a4.34,4.34,0,0,0-.15.85c-.11.08-.13.13-.06.14s.19-.07-.06,0l-.73.07-9.08.84c-.57,0-1.53.4-1.63,1.06s.82.81,1.29.76l8.8-.81c1.33-.12,2.87-.27,3.82-1.34.82-.92.78-2.3.77-3.46a9.34,9.34,0,0,0-.47-3.68c-.67-1.42-2.64-.8-3.81-.53a44.79,44.79,0,0,0-7.89,2.7c-.37.16-.88.51-.85,1s.53.65.92.65a18.75,18.75,0,0,0,6.35-1c.49-.17,1.39-.55,1.23-1.23s-1.22-.58-1.67-.45a15.42,15.42,0,0,0-5.07,2.55c-.32.24-.69.59-.47,1s.82.45,1.22.42a13.6,13.6,0,0,0,6.1-2.12c.37-.23.73-.71.42-1.12s-1.11-.33-1.57-.24a8.09,8.09,0,0,0-4,2,.65.65,0,0,0-.05,1,1.73,1.73,0,0,0,1.46.16,40.6,40.6,0,0,1,6.47-1.15l-.44-1.62L156.58,220c-.44.17-1.06.68-.8,1.2s1.16.49,1.62.35a2.47,2.47,0,0,1,1.87.09l.92-1.6-5.68,1.54c-.48.13-1.26.51-1.23,1.11s.83.72,1.28.64l5-.84c.57-.09,1.53-.37,1.62-1.06s-.81-.81-1.28-.76a57.26,57.26,0,0,1-7.52.22l-.31,1.76c1.19-.26,2.42-.46,3.6-.78.92-.24,2.5-1,2.06-2.26s-2.55-.57-3.44-.34a14.54,14.54,0,0,0-3.64,1.52l2.29.61c.42-.82,1.27-1.31,1.67-2.16a1.8,1.8,0,0,0-.55-2.44,3.38,3.38,0,0,0-3.32.3,3.94,3.94,0,0,0-1.59,2.52l2.92-.3a3.17,3.17,0,0,0-.81-2.31c-.65-.72-2.62-.23-2.79.75-.4,2.27-.6,5.31,1.88,6.5a5.77,5.77,0,0,0,4.17,0,17.1,17.1,0,0,1,3.8-1c1.3-.12,2.65.22,3.92-.12a2.72,2.72,0,0,0,2.23-2.62,13.59,13.59,0,0,0-.3-4.12,3.78,3.78,0,0,0-.64-1.71,2.3,2.3,0,0,0-2.08-.38c-3.27.5-6.53,1.08-9.8,1.62-.57.1-1.53.37-1.62,1.06s.81.85,1.28.77Z" transform="translate(-148.2 -163.95)"/><path class="cls-13" d="M360.69,210.58A50.55,50.55,0,0,1,371.1,208c.55-.07,1.53-.36,1.64-1s-.84-.73-1.26-.68a57.69,57.69,0,0,0-12,2.95c-.43.16-1.17.72-.76,1.22s1.43.25,1.92.07Z" transform="translate(-148.2 -163.95)"/><path class="cls-13" d="M374.07,207.14a11.23,11.23,0,0,0,2.09-.12,12.92,12.92,0,0,0,2.37-.62,1.57,1.57,0,0,0,.76-.61.56.56,0,0,0,0-.67c-.49-.51-1.37-.3-1.93-.09l.11,0-.2.06-.36.1-.39.09c-.3.06.38-.06.13,0l-.19,0c-.26,0-.52.07-.79.09h-.18c-.26,0,.37,0,.12,0h-.43a2.6,2.6,0,0,0-1.14.21,1.63,1.63,0,0,0-.76.61.56.56,0,0,0,0,.67,1.15,1.15,0,0,0,.79.31Z" transform="translate(-148.2 -163.95)"/><path class="cls-13" d="M358.9,211.84a72,72,0,0,0,11.88-2.64c.55-.17,1.38-.65,1.19-1.35s-1.17-.75-1.71-.58a67.81,67.81,0,0,1-11.08,2.51c-.63.08-1.52.41-1.61,1.15s.78,1,1.33.91Z" transform="translate(-148.2 -163.95)"/><path class="cls-14" d="M206.07,218.38l43.4-1.26c.6,0,1.61-.17,1.91-.8s-.23-.94-.8-.92l-43.41,1.26c-.6,0-1.61.17-1.91.8s.23.94.81.92Z" transform="translate(-148.2 -163.95)"/><path class="cls-14" d="M268.43,209.05c8.75-3,18.09-3.28,27.23-3.91l29-2c1.52-.1,2.34-2,.34-1.82l-29.52,2c-9.24.63-18.67,1-27.52,4-.47.16-1.4.56-1.22,1.23s1.21.6,1.67.44Z" transform="translate(-148.2 -163.95)"/><path class="cls-14" d="M207.94,187.58c2.87-4.3,8.66-4,13.17-4.89,2.59-.51,5-1.53,7.64-2a69,69,0,0,1,8.13-.75c1.63-.09,2.23-2.23.26-2.12a70.73,70.73,0,0,0-8.72.86c-3,.53-5.82,1.71-8.82,2.19-5,.8-11,1.18-14.08,5.84-1,1.53,1.68,2,2.42.86Z" transform="translate(-148.2 -163.95)"/><path class="cls-14" d="M264.5,172.15a183.4,183.4,0,0,1,38.6-4c.61,0,1.61-.18,1.9-.82s-.23-1-.82-1a190.48,190.48,0,0,0-40.12,4.21c-.48.1-1.39.58-1.23,1.2s1.21.53,1.67.43Z" transform="translate(-148.2 -163.95)"/><path class="cls-14" d="M200.8,208.62a538.34,538.34,0,0,1,55.53-5.22c.57,0,1.63-.19,1.92-.77s-.24-.77-.76-.75a546.64,546.64,0,0,0-56.26,5.27c-.42.06-1.63.36-1.66.93s.8.6,1.23.54Z" transform="translate(-148.2 -163.95)"/><path class="cls-15" d="M197.8,204.8c-.27,7.91,0,16.14,3.17,23.54,2.55,6,6.87,11.43,12.86,14.31a2.11,2.11,0,0,0,2.07-.21c.4-.29.86-1.05.19-1.37-13.62-6.53-15.82-23.11-15.37-36.55,0-1.39-2.88-.9-2.92.28Z" transform="translate(-148.2 -163.95)"/><g class="cls-16"><path class="cls-17" d="M226.83,191.58a3.09,3.09,0,0,0-2.82-2,4.07,4.07,0,0,0-3.92,2c-.23.38-.4.91-.83,1.07a9.19,9.19,0,0,1-2.17.13,7.92,7.92,0,0,0-4.38,1.89c-1,.82-2.37,2.49-1.77,3.83s2.95,1.41,4.23,1.51a32.65,32.65,0,0,0,5.68-.1,14.74,14.74,0,0,0,5.37-1.25c1.45-.75,2.88-2.1,2.94-3.84a3.08,3.08,0,0,0-3.06-3.14,2.07,2.07,0,0,0-1.9.84,7,7,0,0,0-.71,2.32l2.79-.75a1.32,1.32,0,0,1-.43-1c0-.6-1.12-.59-1.49-.52-.56.1-1.29.42-1.42,1l-.3,1.44,2.91-.53a8.28,8.28,0,0,1-.63-2.39c-.13-1.12-2.91-.49-2.91.53v2.7l2.91-.53-.06-1.42-2.9.78.48,1.51.08-.49a3.36,3.36,0,0,1-3.53,1.27l.6.75a.86.86,0,0,1,.39-.81c.1-.07.23-.1.32-.16a.41.41,0,0,0,.21-.05c-.33-.15-.45-.1-.38.16l.08-.5c.15-.39,1.1-.36.32-.31-.2,0-.4,0-.6,0a6.46,6.46,0,0,1-1.45-.24l.33,1.24a6.2,6.2,0,0,1,5.58-1.46l.25-1.64a14.54,14.54,0,0,1-6.93,1.68l.66,1.29a1.06,1.06,0,0,1,.23-.19c.23-.15,0-.15-.58,0,0,0,.24.24.19.15s.27-.07,0,0a1,1,0,0,0-.23.05s.07.08.08.07-.23-.09-.06-.05-.5,0,0,0c0,0,0,0,0,0,.21,0,.25,0,.11,0a.26.26,0,0,1-.23-.09l.56-.5h0c.06.06,0,.05-.24,0l-.34-.16-1.72.54a.61.61,0,0,1,.07.1c-.22.14.39.12-.17.18a5.34,5.34,0,0,1-1.44,0l.51,1c.28-.57.8-.68,1.38-.84,1.07-.28,2.16-.5,3.24-.69a9.33,9.33,0,0,1,3-.34,1.25,1.25,0,0,1,.89.58,1.44,1.44,0,0,1,.11.53l-.05.13c-.24.31,0,.24.79-.21l.66,1.29a13.81,13.81,0,0,0,1.7-1.72.71.71,0,0,0-.33-1.24,2.17,2.17,0,0,0-2.05.55,14.63,14.63,0,0,1-1.7,1.73c-.69.59,0,1.25.66,1.29,1.56.1,3.73-1.1,3.18-3s-2.83-2-4.37-1.85a44.9,44.9,0,0,0-5.76,1.06c-1.55.37-3.34.94-4.09,2.48a.69.69,0,0,0,.51,1,7.49,7.49,0,0,0,4.79-.45c1.12-.59,2.16-2,.87-3-1-.8-3.34-.42-3.61,1.06s1.85,2,3,1.93,3.2-.73,2.83-2.17-2.43-1.12-3.4-.81-2.89,1.34-2.15,2.7c.62,1.14,2.4.94,3.44.65s3.35-1.62,2.05-3.06-3.59-.37-4.73.71c-.62.59-.05,1.28.67,1.29a19.32,19.32,0,0,0,9.2-2.1c.62-.32,1.4-1.37.25-1.63a10.83,10.83,0,0,0-9.68,2.56.7.7,0,0,0,.33,1.24,9.32,9.32,0,0,0,4.39.19c1.08-.23,2.71-1.42,1.46-2.53-1-.89-2.76-.39-3.82.13a3.3,3.3,0,0,0-2.12,2.6.72.72,0,0,0,.6.75,7.72,7.72,0,0,0,5.36-.6,7.25,7.25,0,0,0,2.11-1.58,1.61,1.61,0,0,0,.59-1.16,9.39,9.39,0,0,0-.47-1.51c-.4-1.24-3-.41-2.9.78l.06,1.41c0,.61,1.13.59,1.49.53s1.42-.45,1.42-1.06v-2.69L222,193a8.3,8.3,0,0,0,.64,2.39c.47,1.1,2.69.51,2.9-.53l.3-1.44-2.91.53a2.12,2.12,0,0,0,.66,1.39c.68.66,2.66.33,2.79-.75a5.66,5.66,0,0,1,.54-1.81l-1.9.84c.85,0,1.27,1.13,1.17,1.85a2.62,2.62,0,0,1-1.76,2,14,14,0,0,1-3.57.61,28.48,28.48,0,0,1-3.92.1c-.64,0-1.27-.08-1.91-.16-.32,0-.93,0-1.18-.31-.59-.61.76-2,1.22-2.31,1.62-1.24,3.83-.45,5.63-1.33a3.87,3.87,0,0,0,1.49-1.23c.3-.41.5-1.12.91-1.43-.2.15-.19,0,0,.13a1.48,1.48,0,0,1,.77.84c.37,1.19,3.26.4,2.89-.77Z" transform="translate(-148.2 -163.95)"/></g><g class="cls-16"><path class="cls-17" d="M243.43,185.39a7,7,0,0,0-5.6-.26c-1.51.63-2.74,2-1.8,3.64a8.38,8.38,0,0,0,1.43,1.71c.67.67,1.34,1.34,2,2a15.65,15.65,0,0,0,4.12,3.27,6.25,6.25,0,0,0,5.51-.33,4.23,4.23,0,0,0,2.17-3.75,10.82,10.82,0,0,0-1.34-5.11,6.16,6.16,0,0,0-3.46-3c-3.41-1.17-7.91.48-9.46,3.8-.28.61,1.45.31,1.57.27l2.46-.74-1.59-.13a1.15,1.15,0,0,1-.12.4c0,.1-.23.18-.09.12l2,.33a13.6,13.6,0,0,1,3.28-1.58l-1.84-.31a24.72,24.72,0,0,1-3.38,2.66c-.39.26-.44.61.06.7a3.18,3.18,0,0,0,1.91-.37,10.12,10.12,0,0,1,3-1l-1.07-.52a7.78,7.78,0,0,1-3.35,2.63l1.64.48a22.29,22.29,0,0,1,4.44-2l-2-.15a11.89,11.89,0,0,1-1.32,2.49l2.87-.47a8.7,8.7,0,0,1,.66-2.62,7.86,7.86,0,0,1,.57-1.12,3.69,3.69,0,0,1,.75-1l-1,.42.12,0-1.32.09c.41.09.84,1.06,1,1.39A8.12,8.12,0,0,1,247,189a5.35,5.35,0,0,1,0,3.49c0,.06-.15.17-.16.23l1.64-.49-.15-.09c-.2-.19-.42-.33-.6-.53a4.34,4.34,0,0,1-.88-1.37,4.61,4.61,0,0,1-.15-3.27l-2.8.74a6.17,6.17,0,0,1,1.56,2.35,3.73,3.73,0,0,1,.28,1.23,2.22,2.22,0,0,1-.12.58c-.4.57.18.42,1.75-.44a.66.66,0,0,1-.24-.11,4.71,4.71,0,0,1-1.79-2c-.32-.65-.82-1.93-.44-2.63l-.31.33.12-.09-1.38.5.15,0h-.93c.32.1.67.59.88.83a11.59,11.59,0,0,1,.87,1.12,11.82,11.82,0,0,1,1.23,2.4l2.38-1a4.17,4.17,0,0,1-3.74-3.21l-2.9.77a46.05,46.05,0,0,0,3.2,5.69c.45.69,2.05,0,2.57-.3l.07,0-2.3.51c-.09,0-.12,0-.09.08l.13-.31-.06.09.8-.47-.15,0,1.45-.24c-.16,0-.45-.29-.58-.38s-.54-.37-.8-.57a17.23,17.23,0,0,1-1.33-1.1,8.61,8.61,0,0,1-2.33-2.8,1.62,1.62,0,0,1,0-1.41,1.15,1.15,0,0,0,.14-.19c.17-.19-.05-.13-.64.18-.67,0-.86.12-.55.25a7.77,7.77,0,0,0,.78.56,11.07,11.07,0,0,1,2.3,2.71l2.81-.9a6.28,6.28,0,0,1-2-5.76c.16-.91-2.27,0-2.56.15a2.29,2.29,0,0,0-1,2.49,6.57,6.57,0,0,0,2,2.72,33.91,33.91,0,0,0,2.67,2.26,2.52,2.52,0,0,1,1,1.15.91.91,0,0,1,0,.61c-.27,1-.65-.53,1.5-.06a3.14,3.14,0,0,0-2,.35c-.24.12-1,.69-.33.83,1.23.27,3.22-.2,3.71-1.52s-.67-2.05-1.49-2.67a23.8,23.8,0,0,1-3.08-2.77,4.06,4.06,0,0,1-1.05-1.68,1.49,1.49,0,0,1,.31-1.53l-2.55.15a6.74,6.74,0,0,0,2.15,6.3c.47.42,3.14-.34,2.81-.89a11.82,11.82,0,0,0-1.87-2.4,3.88,3.88,0,0,0-2.83-1.46,3.67,3.67,0,0,0-3.05,1.53,2.36,2.36,0,0,0,.38,2.58,15,15,0,0,0,4.72,4.26,2.33,2.33,0,0,0,1.58.24c.53-.09,1.69-.36,1.89-1a.53.53,0,0,0-.43-.65,3.27,3.27,0,0,0-2.38.55l2.57-.3a45.86,45.86,0,0,1-3.19-5.68c-.33-.71-3.08,0-2.9.77a5.08,5.08,0,0,0,4.78,3.72,3.71,3.71,0,0,0,1.61-.32c.19-.09.89-.39.77-.71a12,12,0,0,0-1.56-2.86c-.52-.72-1.24-1.85-2.21-1.94a3.78,3.78,0,0,0-2.2.57,1.22,1.22,0,0,0-.56,1.22,5.24,5.24,0,0,0,.87,2.71,4.7,4.7,0,0,0,2.06,1.89,3.51,3.51,0,0,0,3.47-.88,2.45,2.45,0,0,0,.06-2.39,6.93,6.93,0,0,0-1.74-2.6c-.51-.48-2.58.1-2.79.75a5.12,5.12,0,0,0,.63,4.51,3.44,3.44,0,0,0,1.81,1.51,3.72,3.72,0,0,0,3.26-1c1.07-1.21.67-3.5.2-4.88a8.35,8.35,0,0,0-1.27-2.37c-.72-.95-2.11-.64-3-.1a5.7,5.7,0,0,0-1.86,2.41,9,9,0,0,0-.88,3.09c-.06.54.85.42,1.18.36a2.54,2.54,0,0,0,1.69-.83,12.72,12.72,0,0,0,1.32-2.5c.28-.73-1.77-.21-2-.15a29,29,0,0,0-5.65,2.57c-.32.19-.47.52-.06.68a2.71,2.71,0,0,0,1.7-.21,11.13,11.13,0,0,0,5-3.56c.5-.65-.75-.57-1.07-.52a17.64,17.64,0,0,0-5.24,1.68l2,.34a27.37,27.37,0,0,0,3.78-3c.29-.27,0-.48-.26-.53a3.23,3.23,0,0,0-1.57.22,18.69,18.69,0,0,0-4.49,2.19c-.39.25-.44.6.06.7a3.44,3.44,0,0,0,1.91-.37,2.14,2.14,0,0,0,1.41-1.78c0-.47-1.48-.16-1.58-.13l-2.46.75,1.57.27a4.65,4.65,0,0,1,1.94-2.17,1.24,1.24,0,0,1,.74-.22,4.19,4.19,0,0,1,1.45.23c2.39.78,3.44,3.08,4,5.34a6,6,0,0,1,0,3.8,3,3,0,0,1-.4.72s-.42.41-.42.43.61,0,0-.06a2.7,2.7,0,0,1-.84-.19,9.38,9.38,0,0,1-3-2.17c-1-.91-1.95-1.84-2.9-2.78s-2.25-2-1.88-3.29a1.64,1.64,0,0,1,.38-.63c.19-.23.15-.06,0,0s-.39,0-.12.06a16.21,16.21,0,0,1,2.15.67,2.88,2.88,0,0,0,2-.35c.33-.17.92-.59.33-.83Z" transform="translate(-148.2 -163.95)"/></g><g class="cls-16"><path class="cls-17" d="M274.11,182.14a4.11,4.11,0,0,0,2,1.86,6,6,0,0,1,2.24,1.51c.67.94.23,2.15.14,3.19a2.59,2.59,0,0,0,.2,1.53c.2.36,1.07,1,.79,1.39l.31-.35c.32-.14.33-.16,0-.05l-.26.08-.87.25c-.53.15-1.06.28-1.6.38s-1.18.21-1.78.29a4.48,4.48,0,0,1-1.4.12c-.81-.21-1.16-1.82-1.39-2.49a21.94,21.94,0,0,1-.88-3.46,22.42,22.42,0,0,1-.31-3.56,8.08,8.08,0,0,1,.14-1.31.88.88,0,0,1,.09-.2,2,2,0,0,1-.75.27c.09.07.49,0,.6.06a6,6,0,0,1,2.66,1.12c.39.27,2.09,1.59,1.51,2.13l.46-.34c.68-.4,1.33-.13.74-.28l-.75-.22a10.57,10.57,0,0,1-1.34-.57,10,10,0,0,1-2.42-1.8c-.54-.53-2.82.08-2.81.91l0,3c0,.4,1,.28,1.21.26a2.53,2.53,0,0,0,1.56-.7l1.15-1.62-2.78.45a12.16,12.16,0,0,1-.76,5.07c-.18.5.8.46,1,.43a2.69,2.69,0,0,0,1.75-.71l2.74-3.45-2.76.28a12.25,12.25,0,0,1-.8,3.38c-.2.49.8.45,1,.43a2.72,2.72,0,0,0,1.75-.71l3.19-4.19-2.76.29a71.42,71.42,0,0,1-2.63,6.78c-.22.49.83.46,1,.44a2.63,2.63,0,0,0,1.74-.72l2.64-3.81c.31-.45-.16-.6-.57-.62a3,3,0,0,0-1.89.56,11,11,0,0,0-2,2.23c-.12.17-.19.3,0,.47a2.23,2.23,0,0,0,1.93.35l.33-.06s1.06-.17.24-.09c-.66.07,0,0-.14.32l2.89-.62a11,11,0,0,1,.18-3.13l-2.89.61.08,3.06,2.9-.78a7.13,7.13,0,0,1,.1-2.21l-2.36.89q.24,0,.09,0a1.2,1.2,0,0,1,.21.17,1.08,1.08,0,0,1,.25.5.94.94,0,0,1,0,.55s-.25.46-.27.42.72,0,.05-.13a2.82,2.82,0,0,1-1.18-.6c-1.69-1.37-1.75-3.73-1.09-5.64a3.66,3.66,0,0,0,.25-.62c-1.4.07-1.84.2-1.31.39a1.68,1.68,0,0,1,.3.15,9.22,9.22,0,0,1,1.26,1,17.62,17.62,0,0,1,2.12,2.28c.65.86.95,1.68.17,2.55a8.62,8.62,0,0,1-1.09,1,3.2,3.2,0,0,0-.56.37c.06-.16.69,0,.14-.14l-1.52,1.34h4.42a2.7,2.7,0,0,0,1.93-.73c.4-.53-.35-.62-.72-.62h-4.43a2.89,2.89,0,0,0-1.83.64c-.38.38-.17.61.31.7a5.91,5.91,0,0,0,4.36-1.2c.86-.62,2.14-1.61,2.37-2.71s-.84-2.3-1.57-3.12a11.91,11.91,0,0,0-2.8-2.5,3.54,3.54,0,0,0-4.22.73,6.14,6.14,0,0,0-.88,3.73,4.52,4.52,0,0,0,4.55,4.4c1.41,0,3.31-.57,4-1.92a1.63,1.63,0,0,0-1.48-2.33,3.6,3.6,0,0,0-1.45.24c-.26.1-.84.33-.91.66a8.66,8.66,0,0,0-.12,2.54c.08.73,2.92.11,2.9-.78l-.08-3.06c0-.71-2.74-.06-2.88.62a11.82,11.82,0,0,0-.21,3.46c0,.46,1.19.26,1.4.21.48-.1,1.28-.32,1.49-.82s-.4-1-.94-1.12a3.28,3.28,0,0,0-1.25,0l-.39.08-.08,0c.17,0,.32.11.14-.08l0,.46a9.51,9.51,0,0,1,1.64-1.88l-2.46-.07-2.63,3.81,2.76-.28a71.61,71.61,0,0,0,2.63-6.79c.17-.5-.78-.45-1-.43a2.72,2.72,0,0,0-1.75.71L272,188.84l2.76-.28a11.76,11.76,0,0,0,.8-3.37c.09-1-2.43-.13-2.76.28L270,188.92l2.77-.28a13.07,13.07,0,0,0,.78-5.4c0-.4-1-.28-1.21-.25a2.46,2.46,0,0,0-1.56.69l-1.15,1.62,2.78-.44-.05-3-2.81.91a10.86,10.86,0,0,0,5.07,2.82,4.37,4.37,0,0,0,3.28-.51c1-.64.73-1.47.06-2.25a7.66,7.66,0,0,0-4.9-2.51,5.51,5.51,0,0,0-3.62.7,2.45,2.45,0,0,0-1,2.29,22.28,22.28,0,0,0,.92,6.49,11.54,11.54,0,0,0,1.16,3,2.59,2.59,0,0,0,2.6.94,30.7,30.7,0,0,0,6.85-1.3c.71-.21,2.66-.61,2.51-1.69a2.15,2.15,0,0,0-.62-.93,1.68,1.68,0,0,1-.48-1c-.1-.95.29-1.9.24-2.85a2.64,2.64,0,0,0-1.07-1.94c-1.11-.87-2.93-1.19-3.55-2.58-.37-.82-3.2.12-2.9.78Z" transform="translate(-148.2 -163.95)"/></g><g class="cls-16"><path class="cls-18" d="M235.58,188.77c-.73,0-1.57-.91-2.15-1.28a7.11,7.11,0,0,0-2.77-1,15.29,15.29,0,0,0-5.68.16c-1.43.33-3.41,1.11-3.55,2.82-.17,2.09,2.11,3,3.53,3.92,1.73,1.12,2.64,3.12,4.42,4.17a5.53,5.53,0,0,0,5.78-.32c1.57-1.05,2.52-2.94,3.56-4.47.48-.7,1.2-1.58.88-2.49a2.33,2.33,0,0,0-2-1.31c-1.17-.15-2.36.08-3.54,0a16.29,16.29,0,0,1-3.6-.58c-1.1-.31-2.14-.88-3.26-1.08a4.92,4.92,0,0,0-3.58.77l2.57-.3v-.09l-.31.33L226,188l-1.37.51.16,0h-.93l.14,0-.27-.21c.34.48-.11,1,.07,1.56.26.8,2.65-.07,2.88-.62a2.13,2.13,0,0,1,.79-1.07l-2.3.14a2.6,2.6,0,0,1-.25,2.24c-.24.4.69.41.82.41a3.64,3.64,0,0,0,1.73-.55l2.06-1.29-2.57.3a3.34,3.34,0,0,1-.58,2.47c-.37.51.33.59.71.57a3,3,0,0,0,1.93-.72l2.17-2.54-2.77.46a4.12,4.12,0,0,1,.22,2.17c-.1.54.88.41,1.18.36a2.45,2.45,0,0,0,1.68-.83l1.58-2.4-2.88.63a6.14,6.14,0,0,1-1.33,3.32l2.76-.31A2.59,2.59,0,0,1,233,191l-2-.16a20.62,20.62,0,0,1-2,5.38c-.28.5,1,.39,1.18.36a2.4,2.4,0,0,0,1.69-.84l3.16-5.24-2.89.62a4.22,4.22,0,0,1-.56,2.8c-.26.46.88.4,1,.39a3.21,3.21,0,0,0,1.75-.7,15,15,0,0,0,2.39-2.58l-2.75.31a4.87,4.87,0,0,1-2.39,3.82h2.28a9.09,9.09,0,0,1,1.73-2.17l-2.68.59a.83.83,0,0,1,.18.48c.17.8,2.49-.11,2.77-.46a17,17,0,0,0,1.93-2.9c.26-.5-1-.39-1.18-.36a2.4,2.4,0,0,0-1.69.84c-1,1.71-3.38,2.39-3.72,4.51l2.8-.75a46.47,46.47,0,0,1-5.65-6.08c-.44-.56-3.11.4-2.81.9a18.23,18.23,0,0,0,4.74,5c.93.71,1.84,1.62,3.08,1.56.7,0,3-.62,2.48-1.74l-2.81.9a.23.23,0,0,1,.06.25q-.28.51.72-.27l1.06-.13c-.4,0-.75-.44-1-.7l-1.2-1.1-2.3-2.11c-.7-.64-1.49-1.25-2.13-1.95a2.11,2.11,0,0,1-.41-.61c-.15-.39.1-.44-.52-.25-.83.26-.23.12.09.15a6.1,6.1,0,0,1,.84.13,3.14,3.14,0,0,0,2-.35c.25-.12,1-.69.33-.84a9,9,0,0,0-3.14-.18,3.43,3.43,0,0,0-2.46,1.15c-.39.65.07,1.34.52,1.82.72.77,1.57,1.45,2.35,2.16l2.3,2.1a7.13,7.13,0,0,0,2.17,1.74,3.65,3.65,0,0,0,3.05-.54c.51-.35.9-1,.39-1.49s-3.11.26-2.81.9a.26.26,0,0,1,.07.19l1-.43-.17,0,1.07-.13c-.35,0-.72-.42-1-.62l-.81-.61c-.6-.46-1.19-.93-1.76-1.43a14.18,14.18,0,0,1-2.9-3.37l-2.81.9a46.55,46.55,0,0,0,5.65,6.09c.47.43,2.68-.06,2.79-.75a3.88,3.88,0,0,1,1.63-2.3,8.48,8.48,0,0,0,2.09-2.22l-2.87.48a14.67,14.67,0,0,1-1.7,2.57l2.77-.46a1.71,1.71,0,0,0-.36-.74c-.21-.28-1.07-.1-1.3,0a2.82,2.82,0,0,0-1.38.63,10.57,10.57,0,0,0-2,2.5c-.2.34.53.4.67.4a3.55,3.55,0,0,0,1.62-.39,6.28,6.28,0,0,0,3.56-4.79c.1-.93-2.46-.1-2.76.31a15,15,0,0,1-2.39,2.58l2.75-.31a4.82,4.82,0,0,0,.59-3.11c-.06-.43-1.18-.21-1.39-.16a2.22,2.22,0,0,0-1.49.79L229,196.21l2.87-.48a20.31,20.31,0,0,0,2-5.37c.18-.76-1.68-.25-2-.16a5,5,0,0,0-3.17,2.87c-.18.48.8.41,1,.38a2.8,2.8,0,0,0,1.75-.69,7.1,7.1,0,0,0,1.59-3.95c0-.42-1.26-.2-1.39-.17a2.32,2.32,0,0,0-1.49.8l-1.58,2.39,2.86-.47a4.55,4.55,0,0,0-.18-2.48c-.29-.78-2.44.07-2.77.47l-2.17,2.54,2.64-.15a4.15,4.15,0,0,0,.84-3.1c-.11-.76-2.27.11-2.57.3l-2.06,1.29,2.56-.15a3.08,3.08,0,0,0,.28-2.55c-.22-.66-2-.06-2.3.14a4.26,4.26,0,0,0-2,2l2.89-.62c-.14-.43.15-.79.08-1.21s-.51-.65-1-.66-2.87.41-2.52,1.39c.26.75,2.18,0,2.57-.3-1.28.87-1.07.11-.68.31a4.42,4.42,0,0,0,.55.17l1,.41a18.44,18.44,0,0,0,2.41.7,19.52,19.52,0,0,0,4.88.41,3.9,3.9,0,0,1,2.09.14c.76.45.71,1.21.32,1.9a24.48,24.48,0,0,1-1.42,2.12,20.82,20.82,0,0,1-1.34,1.89c-.18.22-.41.39-.6.61s-.11,0,.07,0l-.25-.09a4.59,4.59,0,0,1-2-1.25,23.75,23.75,0,0,0-3.15-3.19c-1.19-.8-2.86-1.34-3.35-2.83-.34-1,.08-1.85,1.06-1.95a9.12,9.12,0,0,1,4.8.59c.65.32,1.19.82,1.8,1.19a4.15,4.15,0,0,0,2.25.59,2.78,2.78,0,0,0,1.94-.72c.39-.52-.35-.57-.71-.57Z" transform="translate(-148.2 -163.95)"/></g><g class="cls-16"><path class="cls-18" d="M308,174.44c-2.41-.29-5.63-1.13-7.55.91a2.43,2.43,0,0,0-.35,2.91c.6,1.21,1.41,2.34,2.13,3.49a16.39,16.39,0,0,1,1,1.6,4.59,4.59,0,0,1,.17.69l.4-.31-.48.1a5.19,5.19,0,0,0-2.71,1.7,4.34,4.34,0,0,0,.19,5.72c1.64,1.8,4.19,2,6.48,1.84,1.12-.09,2.25-.25,3.37-.39a24.4,24.4,0,0,0,4.1-.59c2.6-.81,2.35-4.08,2-6.26a20.23,20.23,0,0,0-2.49-6.61c-1.22-2.18-2.8-4-5.34-4.58a8.64,8.64,0,0,0-7,1.41c-.37.27-.71.74-.39,1.18a1.74,1.74,0,0,0,1.72.54,3.29,3.29,0,0,0,1.11-.36,2,2,0,0,0,.46-.29c.54-.38.29-.41-.74-.08l-.48-.29c.61.6.43,2.21.33,3-.08.62.64.83,1.12.82a2,2,0,0,0,1.71-.85,5.55,5.55,0,0,0,.87-2.22c.2-1.24-1.89-.74-2.4-.43a.5.5,0,0,1-.27.08l1.31.83c0-.47,0-1.57.33-1.95l-1,.54c-.74-.22-.94-.17-.61.14.12.15.23.3.34.46.22.31.43.63.63,1a15.35,15.35,0,0,1,1,2.07c.42,1,2.45.61,2.82-.28a4.61,4.61,0,0,0,.41-1.9l-2.79.75,2,2.62c.6.8,3.21.12,2.78-1l-1.17-3-2.9.78c1.18,2.84,2.29,5.7,3.31,8.61.14.4.31.8.42,1.22l.06.33c.39-.11.5-.17.33-.15s-.92,0-1.07,0h-1l-4.63,0a9.53,9.53,0,0,1-1.91,0c-.28-.27,0-.91.09-1.18a9,9,0,0,1,2.4-2.82c.92-.76,2.18-1.41,2.49-2.66a1.86,1.86,0,0,0-1.26-2.28c-.73-.25-2.19.15-2.32,1a41.11,41.11,0,0,0-.37,7.6l2.91-.53a9.61,9.61,0,0,1,.06-6.5l-2.82.27q.13,1.89.15,3.78c0,.56,0,1.12,0,1.68,0,.4.12,1.21-.1,1.54l.76-.64-.13.06,1.47-.15-.22,0,.48.29c-.78-.7-1.62-1.73-1.3-2.83l-2.91.53a26.73,26.73,0,0,1,.09,5.06c-.09,1.38,2.81.9,2.93-.28a17.57,17.57,0,0,1,2.52-7.56l-2.83.27a6.89,6.89,0,0,1-1,6l2.64,0a7.26,7.26,0,0,1,1.35-6.52l-2.64,0a33.16,33.16,0,0,1,.14,4.78l2.92-.28a10.37,10.37,0,0,1,1.32-5.59l-2.82.27a17.28,17.28,0,0,1-1.17,9l2.84,0a16.94,16.94,0,0,1,2.57-7l-2.5.67c.52.4-.39,1.71-.6,2.05a11.68,11.68,0,0,1-2.05,2.39l2-.55c.24.08,0-.08.16-.23a4,4,0,0,1,.53-.47,7.92,7.92,0,0,0,1.24-1c.53-.33.2-.36-1-.1l-.05.17c-.13.2-.21.42-.34.61a4.6,4.6,0,0,1-.76.83,11.77,11.77,0,0,1-4.55,2l1.43,1.24c1.17-1.13,3.32-.37,4.68-.09a6.57,6.57,0,0,0,2.92.19c.83-.21,1.87-.79,1.68-1.79-.24-1.21-3.15-.48-2.9.77l0,.17.08-.51.78-.5-.3,0a5.86,5.86,0,0,0-.73-.13c-.45-.1-.9-.2-1.36-.28a12.7,12.7,0,0,0-2.68-.28,6.71,6.71,0,0,0-4.58,1.78c-1,1,.69,1.45,1.43,1.25a20.23,20.23,0,0,0,4.94-1.94c1.3-.76,3.05-2.2,3.21-3.82.1-1-.93-1.52-1.85-1.45a5.34,5.34,0,0,0-2.82,1.48c-.72.57-1.72,1.19-2,2.16a1.5,1.5,0,0,0,1.07,1.79,2.21,2.21,0,0,0,2-.55c1.4-1.27,4.88-4.92,2.53-6.72a2,2,0,0,0-2.5.68,18.3,18.3,0,0,0-2.76,7.52c-.17,1.35,2.48.83,2.84,0a19.11,19.11,0,0,0,1.32-10c-.07-.52-.91-.61-1.29-.57a2,2,0,0,0-1.53.85,11.4,11.4,0,0,0-1.5,6.1c.05,1.39,2.87.9,2.92-.28a34.52,34.52,0,0,0-.17-5.28c0-.46-.78-.58-1.1-.57a2.14,2.14,0,0,0-1.54.6,8.87,8.87,0,0,0-1.86,8c.27,1,2.19.58,2.64,0a8.47,8.47,0,0,0,1.51-7.46c-.33-1.18-2.39-.42-2.82.28a19.13,19.13,0,0,0-2.7,8.07l2.93-.28a31.31,31.31,0,0,0-.12-5.56c-.07-.61-1.1-.61-1.49-.54a1.69,1.69,0,0,0-1.42,1.07,3.56,3.56,0,0,0,1,3.19,2.18,2.18,0,0,0,1.57,1,2.33,2.33,0,0,0,1.94-.79,2.3,2.3,0,0,0,.34-1.5c0-.72,0-1.45,0-2.18,0-1.48-.07-3-.17-4.44,0-.53-.94-.61-1.3-.58s-1.32.32-1.52.85a11,11,0,0,0-.22,7.51c.36,1.07,3,.56,2.91-.53A41,41,0,0,1,308,180l-2.32,1c.08,0,.14.5.08.67-.16.47-.76.78-1.13,1.06a14.33,14.33,0,0,0-2.64,2.58,5.29,5.29,0,0,0-1.34,2.69,1.77,1.77,0,0,0,1.55,2,21.35,21.35,0,0,0,4,0l4.29,0a5.85,5.85,0,0,0,3.47-.7c1.18-.83.93-1.94.52-3.12-1.05-3-2.2-6-3.42-8.92-.49-1.17-3.34-.37-2.9.78l1.17,3,2.79-1-2-2.62c-.56-.75-2.81-.29-2.8.75a3.31,3.31,0,0,1-.23,1.39l2.82-.27a17.9,17.9,0,0,0-1.27-2.51,5,5,0,0,0-1.72-2,2.5,2.5,0,0,0-2.81.55,4.57,4.57,0,0,0-.79,2.84c0,.68.74.9,1.3.83a6.26,6.26,0,0,0,2.45-.87l-2.39-.43a4.12,4.12,0,0,1-.69,1.71l2.83,0c.14-1.08.26-3-.52-3.86a1.92,1.92,0,0,0-1.87-.41,3.21,3.21,0,0,0-1.11.47c-1.19.77.5-.13.84.36l-.39,1.18a4.27,4.27,0,0,1,3.65-.68,6.16,6.16,0,0,1,3.64,3.08,21.36,21.36,0,0,1,2.34,5.15,14.43,14.43,0,0,1,.52,2.6,10.15,10.15,0,0,1,0,1.35c0,.25,0,.49-.05.73a3.39,3.39,0,0,0-.13.86l0,.12h.13c-.21,0-.44.06-.66.08l-1.64.2-3.05.38c-1.65.19-3.6.38-4.92-.85a3.06,3.06,0,0,1-.5-4.17c.47-.53,1.12-.47,1.74-.74a2.06,2.06,0,0,0,1.44-2,7.06,7.06,0,0,0-1.34-2.63c-.6-1-1.22-1.92-1.81-2.9-.23-.4-.63-1-.46-1.46s.27-.33.65-.33a29,29,0,0,1,3.59.4,2,2,0,0,0,1.9-.85c.31-.65-.28-1-.85-1.08Z" transform="translate(-148.2 -163.95)"/></g><g class="cls-16"><path class="cls-18" d="M287.13,180.37l2.69,1.38a2.44,2.44,0,0,0,1.72-.15c.36-.16.93-.42.9-.88-.05-.83-1.11-1.07-1.77-1.05a4.3,4.3,0,0,0-3.08,1.42l-.35.4-.15.17s-.18.18-.09.1l-.4.33s-.26.16-.07,0l-.2.11c-.3.18.16-.05,0,0l-.1,0,.11,0-.21.06.18,0c-.13,0-.14,0,0,0h0c.16,0-.12,0-.16,0s0,0,0,0a1.64,1.64,0,0,1-.3-.14l-.63,1.14c-1,.37-1.2,0-.81.21a.75.75,0,0,1,.17.14,1.39,1.39,0,0,1,.42.57,10.79,10.79,0,0,1,.42,1.89,2.72,2.72,0,0,0,.82,1.44,2.59,2.59,0,0,0,2.13.48c.42-.06,2.09-.53,1.58-1.24a4.41,4.41,0,0,1,0-5.05c.4-.53-.34-.72-.74-.71a2.7,2.7,0,0,0-1.93.75,5.13,5.13,0,0,0-.06,6.09l1.57-1.23a.63.63,0,0,1,.43,0,.77.77,0,0,1-.19-.08,1.5,1.5,0,0,1-.24-.21,1.63,1.63,0,0,1-.37-.6c-.25-.64-.25-1.35-.44-2a2.42,2.42,0,0,0-1.08-1.43,3.3,3.3,0,0,0-2.8,0c-.4.15-1.37.75-.62,1.14,1.64.83,3.79.11,5.21-.85a8.1,8.1,0,0,0,1.54-1.44c.13-.14.15-.14.27-.26s.06-.05,0,0a.66.66,0,0,1-.39.14,1.42,1.42,0,0,1-.76.12h0l.08,0c0-.06,0,0,0,0a.47.47,0,0,1,.1.3l2.62-1-2.69-1.38a1.91,1.91,0,0,0-1-.06,3.33,3.33,0,0,0-1.1.37c-.38.22-.88.67-.29,1Z" transform="translate(-148.2 -163.95)"/></g><g class="cls-16"><path class="cls-18" d="M284.13,193.29c.31,0,.15,0,.08,0,.19.07,0,0,0,0a.75.75,0,0,1-.2-.15l.08.08a1.3,1.3,0,0,1-.25-1.14l0,.12a1.13,1.13,0,0,1,.14-.36l.1-.17c.07-.1,0,0,0,0l.09-.08,0,0c-.06,0-.07.05,0,0s0,0-.14.06l-.15.06s-.4.11-.2.06l-.2,0-.12,0h.33c.18,0-.12,0,0,0l.14,0,.61.07,1.53.19-.23-.26a1.56,1.56,0,0,1-.16.2.39.39,0,0,1-.08.1h0c-.12.11-.25.23-.38.33l-.1.08c-.1.07,0,0,.05,0a1.59,1.59,0,0,0-.22.13l-.11.06c-.15.09.1,0,.11-.05s-.43.18-.13.06-.35.11.06,0-.35.08.08,0-.32,0,.06,0,0,0-.11,0,.27,0,.12,0h-.32l-.12,0-.29,0,.23.26a1,1,0,0,1,.12-.23l0-.05c-.07.07.06-.06.06,0s-.18.1-.06,0a3.47,3.47,0,0,1-.72.28,3.4,3.4,0,0,1-.83.12c-.15,0,0,0,0,0a2.59,2.59,0,0,0,.92-.06,4.65,4.65,0,0,0,1.1-.33c.24-.11,1-.52.38-.66a2.81,2.81,0,0,0-1,0,6.24,6.24,0,0,0-1.74.47,2.18,2.18,0,0,0-1.2,1c-.07.18.08.23.22.26a7.48,7.48,0,0,0,4-.43,6,6,0,0,0,2.83-1.93c.12-.16-.13-.24-.22-.26-.72-.09-1.43-.19-2.14-.26a7.6,7.6,0,0,0-2.77.22,5.29,5.29,0,0,0-1.66.7,2,2,0,0,0-.64.62,1.64,1.64,0,0,0-.15,1.21,1.19,1.19,0,0,0,.36.57,1.46,1.46,0,0,0,.9.26,3.79,3.79,0,0,0,1.06-.17,3.83,3.83,0,0,0,1-.38c.12-.07.4-.22.36-.39s-.39-.15-.5-.15Z" transform="translate(-148.2 -163.95)"/></g><g class="cls-16"><path class="cls-19" d="M231.17,193.36c.42,1.28-.24,2.57,0,3.86a2.65,2.65,0,0,0,.56,1.32,1.89,1.89,0,0,0,1.51.66,4.22,4.22,0,0,0,1.61-.34c.1,0,.93-.37.79-.6a7.47,7.47,0,0,0-1.2-1.43,4.9,4.9,0,0,1-1.07-1.33,2.45,2.45,0,0,1-.2-1.31,1.69,1.69,0,0,1,.2-.57l.08-.12c.07-.11,0,0,0,0s0,0,0,0c.26-.17-.59.23-.65.25a4.25,4.25,0,0,0,1-.39c.08-.05.39-.23.35-.4-.11-.39-1.38-.05-1.55,0a3,3,0,0,0-2.13,1.36,2.45,2.45,0,0,0-.1,1.58c.35,1.3,1.74,2,2.4,3.14l2.4-.95c.11,0,.13,0,0,0s-.16-.05-.05,0a1.3,1.3,0,0,1-.26-.14,1.61,1.61,0,0,1-.38-.4,2.93,2.93,0,0,1-.42-1.32c-.1-1.22.47-2.42.07-3.64,0-.16-.39-.16-.5-.16a3.39,3.39,0,0,0-1,.16,3.59,3.59,0,0,0-1,.39c-.11.07-.4.22-.35.39Z" transform="translate(-148.2 -163.95)"/></g><g class="cls-16"><path class="cls-19" d="M237.34,194.62v2.81c0,.22.41.35.55.38a2.46,2.46,0,0,0,1.08-.07,2.33,2.33,0,0,0,1-.48l.19-.2a.51.51,0,0,0,.11-.41v-2.8c0-.23-.42-.35-.56-.38a2.47,2.47,0,0,0-1.08.07,2.33,2.33,0,0,0-1,.48l-.19.2a.48.48,0,0,0-.1.4Z" transform="translate(-148.2 -163.95)"/></g><g class="cls-16"><path class="cls-19" d="M244.35,181.16l-1.79.77a2.05,2.05,0,0,0-.46.25,1.26,1.26,0,0,0-.32.29.41.41,0,0,0,0,.55l.19.12a1.45,1.45,0,0,0,.58.1,3,3,0,0,0,1.14-.23l1.78-.77a1.86,1.86,0,0,0,.46-.25,1.15,1.15,0,0,0,.33-.29.41.41,0,0,0,0-.55l-.19-.12a1.27,1.27,0,0,0-.58-.1,2.75,2.75,0,0,0-1.13.23Z" transform="translate(-148.2 -163.95)"/></g><g class="cls-16"><path class="cls-19" d="M286.69,186.82c.17.18.34.36.5.56l-.08-.1a7.45,7.45,0,0,1,1.54,3.26c0,.17.4.18.5.19a3.82,3.82,0,0,0,1.06-.15,3.74,3.74,0,0,0,1-.4c.13-.09.38-.23.34-.42a7.68,7.68,0,0,0-2.12-3.92c-.13-.13-.6-.09-.74-.07a4.32,4.32,0,0,0-1.12.25c-.22.09-1.23.45-.87.8Z" transform="translate(-148.2 -163.95)"/></g><path class="cls-20" d="M196.28,233.35A11.55,11.55,0,0,0,185,236.07a8.14,8.14,0,0,0-1.38,9.59,10.35,10.35,0,0,0,9.22,5.5c3.72,0,7.6-2.3,8.42-6.12a17.46,17.46,0,0,0,.22-3.68c0-1.16.07-2.35,0-3.51a3.27,3.27,0,0,0-1.83-2.52,18.06,18.06,0,0,0-3.36-1.65c-1.05-.39-3.38,1.12-1.73,1.75a15.13,15.13,0,0,1,2.33,1.12c.66.39,1.44.79,1.63,1.59a11.05,11.05,0,0,1,.06,2.44c0,.89,0,1.78,0,2.68a6.71,6.71,0,0,1-1.17,4.18,4.87,4.87,0,0,1-3,1.81c-5.7.85-10.88-6.25-7.91-11.3,1.71-2.9,5.05-3.7,8.16-2.85a2.23,2.23,0,0,0,2-.55.67.67,0,0,0-.32-1.2Z" transform="translate(-148.2 -163.95)"/><path class="cls-20" d="M193.45,234.72a15.78,15.78,0,0,1-.4,2.63c-.1.41-.22.82-.36,1.22a2.75,2.75,0,0,1-.45,1l.58-.4.07,0,.76-.07c-.26,0-.65-.33-.94-.41a3.82,3.82,0,0,0-1.68-.06,4.92,4.92,0,0,0-2.7,1.41c-1.35,1.4-1.49,3.66-1.29,5.49.26,2.24,3.7,1.94,5.26,1.69a5,5,0,0,0,3.15-1.32,4.56,4.56,0,0,0,.8-2.55c.18-1.76-.13-3.69-1.76-4.67a2.06,2.06,0,0,0-2.07.22c-.45.31-.81,1-.2,1.34,1.16.69,1.23,2.26,1.11,3.47a8.16,8.16,0,0,1-.19,1.1,2.21,2.21,0,0,0-.12.42c0,.1-.11.12.07,0s.09,0,0,0a2.8,2.8,0,0,0-.56.12c-.22,0-.44.06-.66.08a5.64,5.64,0,0,1-1.48,0c-.62-.12-.45-1.12-.44-1.6a5.57,5.57,0,0,1,.48-2.62,1.86,1.86,0,0,1,.49-.59s.27-.15.1-.08c.25-.1.09.05,0,0a3.11,3.11,0,0,0,3,.24c1.13-.55,1.46-1.78,1.8-2.9a15.19,15.19,0,0,0,.6-3.35c.09-1.36-2.84-.88-2.92.29Z" transform="translate(-148.2 -163.95)"/><path class="cls-20" d="M191.48,247.39l1.77,1.31a1.09,1.09,0,0,0,.45.18,1.25,1.25,0,0,0,.54.05,1.69,1.69,0,0,0,.59-.13,1.62,1.62,0,0,0,.5-.27,1.18,1.18,0,0,0,.51-.79l0-.28a.74.74,0,0,0-.33-.46l-1.77-1.31a1,1,0,0,0-.45-.18,1.23,1.23,0,0,0-.54,0,1.63,1.63,0,0,0-.58.13,1.56,1.56,0,0,0-.51.27,1.17,1.17,0,0,0-.5.79l0,.28a.86.86,0,0,0,.33.46Z" transform="translate(-148.2 -163.95)"/><path class="cls-20" d="M197.56,243.11a.19.19,0,0,1,0-.07l-.09.26a3.18,3.18,0,0,1,.42-.82l-.18.25a3.42,3.42,0,0,1,.47-.53l-.25.22a3.43,3.43,0,0,1,.43-.32,1.06,1.06,0,0,0,.35-.35.77.77,0,0,0,.17-.39.71.71,0,0,0-.34-.68,1.53,1.53,0,0,0-1-.2l-.4.07a2,2,0,0,0-.69.32,4.77,4.77,0,0,0-.7.56,2.72,2.72,0,0,0-.4.43,4.1,4.1,0,0,0-.46.71,4.43,4.43,0,0,0-.3.79.5.5,0,0,0,.07.38.55.55,0,0,0,.27.31,1,1,0,0,0,.44.16,1.41,1.41,0,0,0,.54,0,2.26,2.26,0,0,0,1.09-.4l.25-.22a1,1,0,0,0,.27-.52Z" transform="translate(-148.2 -163.95)"/><path class="cls-20" d="M189.84,239.07l-.19-.08.28.12a5.82,5.82,0,0,1-1.48-.92l.2.18-.35-.33a1.25,1.25,0,0,0-.81-.35,1.5,1.5,0,0,0-.56,0,1.94,1.94,0,0,0-.58.17,1.52,1.52,0,0,0-.75.64.62.62,0,0,0,0,.72,6.94,6.94,0,0,0,1.15.94,7.38,7.38,0,0,0,1.35.67,1.51,1.51,0,0,0,.52.06,2.08,2.08,0,0,0,1.11-.3,1.43,1.43,0,0,0,.42-.31.81.81,0,0,0,.26-.74l-.12-.22a1,1,0,0,0-.48-.29Z" transform="translate(-148.2 -163.95)"/><path class="cls-20" d="M338.37,225c-.9-1.82-3.95-1.46-5.58-1.17a12.2,12.2,0,0,0-5.91,2.77,9.12,9.12,0,0,0-2,11.29,9.36,9.36,0,0,0,10.62,3.87,10.24,10.24,0,0,0,5.16-3.28,8.79,8.79,0,0,0,1.8-6,25.24,25.24,0,0,0-.6-4.49,7.78,7.78,0,0,0-1.18-2.94c-1.59-2.18-4.63-1.8-6.94-1.32-.46.1-1.55.3-1.67.89s.9.53,1.21.46c1.63-.33,3.36-.63,4.54.84,1,1.27,1.26,3.2,1.49,4.76.51,3.46.33,7.26-2.91,9.33-2.52,1.6-5.74.34-7.65-1.65a8.28,8.28,0,0,1-1.32-9.13,7.45,7.45,0,0,1,3.68-3.64c1-.46,3.68-1.13,4.33.2.42.86,3.23-.11,2.9-.78Z" transform="translate(-148.2 -163.95)"/><path class="cls-20" d="M332.53,226l.18,6,2.81-.9a14.4,14.4,0,0,0-5.36-1.86,3.15,3.15,0,0,0-1.77.38c-.16.09-.91.57-.51.79a19.91,19.91,0,0,0,3.51,1.2c1,.34,2.08,1.05,2,2.22a1.76,1.76,0,0,1-.15.63,1.42,1.42,0,0,0-.14.23c0,.17,1.08-.32,1.09-.3-.1-.15-.44-.29-.58-.44a2.41,2.41,0,0,1-.48-.71,1.59,1.59,0,0,1-.22-.85,3,3,0,0,0,.11-.31c.17-.18,0-.14-.5.13-.56,0-.72.11-.46.22s.42.31.58.55a2.79,2.79,0,0,1,.33.87l2.37-1a14.22,14.22,0,0,0-6.88,1.08c-.25.1-1,.4-.93.8s.95.29,1.21.24l2.74-.54.41-.08c.23,0,.18,0-.15,0l.2.38a4.43,4.43,0,0,1,.22,1.14,5,5,0,0,1-1.47,4l2.77-.45c-.13-1.36-.31-3,.68-4.13.05-.06.22-.18.25-.24.09-.3-.56.25-.54.12a4.37,4.37,0,0,1,.85.25,11.91,11.91,0,0,0,1.9.75,3.06,3.06,0,0,0,2-.33c.34-.18.93-.64.33-.89-.89-.36-1.8-.7-2.68-1.11-.5-.23-1.28-.66-1.29-1.3s1.09-1,1.57-1.2l2.66-1.28c.36-.18.88-.62.32-.88a2.88,2.88,0,0,0-2,.33l-3.37,1.64c-.78.37-1.88.88-2,1.84-.13.81.57,1.41,1.21,1.77a29.71,29.71,0,0,0,3.28,1.41l2.36-1.22c-1-.23-1.82-.82-2.81-1a5.21,5.21,0,0,0-3.58.63c-2.13,1.19-2.21,3.47-2,5.64,0,.39,1,.26,1.21.23a2.86,2.86,0,0,0,1.57-.68,5.83,5.83,0,0,0,1.65-5.15,2.43,2.43,0,0,0-.47-1.19,1.73,1.73,0,0,0-1.41-.38,30.13,30.13,0,0,0-3.88.73l.28,1.05a8,8,0,0,1,4-.6c.46,0,2.55-.26,2.37-1.05a2.44,2.44,0,0,0-1.83-2,4.34,4.34,0,0,0-3.5,1,1.74,1.74,0,0,0-.06,2.41,2.66,2.66,0,0,0,2.43,1.28c1.73-.07,4.23-1.49,3.18-3.57s-3.75-1.8-5.52-2.79l-2.28,1.17a12.31,12.31,0,0,1,4.48,1.58c.59.35,2.84,0,2.81-.9l-.18-6c0-.63-2.92-.15-2.9.78Z" transform="translate(-148.2 -163.95)"/><path class="cls-20" d="M190.89,241.6l-.06,3.28,2.89-.77a6.6,6.6,0,0,1-.77-3.51v.16A5.87,5.87,0,0,1,193,240c.17-.93-2.63-.33-2.87.44l-.55,1.72c-.06.21.09.34.27.41a2,2,0,0,0,.94,0,3.16,3.16,0,0,0,1.1-.36c.21-.12.49-.27.57-.52L193,240l-2.87.44a6.78,6.78,0,0,0,.68,4.4c.26.5,1.17.32,1.6.2s1.28-.39,1.29-1l.07-3.28c0-.2-.43-.29-.54-.3a2.77,2.77,0,0,0-1.07.1c-.45.13-1.28.39-1.29,1Z" transform="translate(-148.2 -163.95)"/><path class="cls-21" d="M195.33,235.35l2.55,2.29a1.16,1.16,0,0,0,.77.2,2.94,2.94,0,0,0,1.13-.24,1.64,1.64,0,0,0,.79-.52c.11-.16.19-.36,0-.52l-2.56-2.3a1.19,1.19,0,0,0-.76-.19,3.08,3.08,0,0,0-1.13.23,1.79,1.79,0,0,0-.79.52c-.11.16-.2.37,0,.53Z" transform="translate(-148.2 -163.95)"/><path class="cls-21" d="M192.39,241.09a13.36,13.36,0,0,1,0,2v-.17a12.71,12.71,0,0,1-.25,1.84c-.12.57.89.5,1.21.44a3.22,3.22,0,0,0,1.1-.35c.2-.12.52-.29.57-.53a13.44,13.44,0,0,0,.23-4c0-.21-.41-.29-.54-.3a3.21,3.21,0,0,0-2.05.55.6.6,0,0,0-.31.52Z" transform="translate(-148.2 -163.95)"/><path class="cls-21" d="M338.65,228.44a10.84,10.84,0,0,1,.74,1.16l-.1-.19a12.14,12.14,0,0,1,1.33,3.79c0,.24.37.38.57.42a2.08,2.08,0,0,0,1.08-.05c.48-.14,1.35-.51,1.25-1.15a12.33,12.33,0,0,0-2.18-5.13,1.14,1.14,0,0,0-.79-.28,2.47,2.47,0,0,0-1.14.22c-.43.2-1.15.67-.76,1.21Z" transform="translate(-148.2 -163.95)"/><path class="cls-21" d="M368,208.94l.2-.08c.05,0,.28-.12,0,0s0,0,.06,0l.17-.06.18-.06c.24-.08-.4.12-.15.05l.38-.1c.29-.08-.31.06-.15,0l.21,0c.13,0,.58-.09.07,0l.36-.05h.19c.08,0,.4,0,0,0a5.43,5.43,0,0,0,1.06-.16,4,4,0,0,0,1-.39c.12-.08.4-.22.35-.4s-.39-.17-.5-.16a13.94,13.94,0,0,0-5.08,1.2c-.16.07-.53.23-.61.42s.08.24.23.26a2.38,2.38,0,0,0,.92-.05,4.83,4.83,0,0,0,1.1-.34Z" transform="translate(-148.2 -163.95)"/><path class="cls-21" d="M376,207.76c1.62,0,2.25-2,.28-2-1.62,0-2.25,2-.28,2Z" transform="translate(-148.2 -163.95)"/><path class="cls-21" d="M148.87,218.87c2.5,1,5.22.21,7.68-.5l.85-.23.51-.14.2,0c.36-.07.89-.33,1,.09a2.32,2.32,0,0,1,.06.83V220l0,2.17,2.82-.87c-.31-.33-.11-.95-.11-1.34a1.05,1.05,0,0,0-.8-1.07,5.16,5.16,0,0,0-1.92-.08l-2.38.13c-1.52.09-3,.16-4.56.26a6.6,6.6,0,0,0-2.35.58c-.51.24-1.06.56-1.07,1.18l.08.1c1.43.87,3.39,0,4.74-.54a8.29,8.29,0,0,1,3.75-.4,3.54,3.54,0,0,0,2.05-.55c.49-.3.38-.55-.16-.6a14.57,14.57,0,0,0-5.64.6c-.54.16-1.06.36-1.59.56l-.29.12c-.45.17.19-.1.17,0s-.19-.12-.21-.13a.17.17,0,0,1,.06-.11,2,2,0,0,1-.84.32q-.35.06-.06,0l.41,0,.72-.05,5.7-.32c.57,0,1.22-.16,1.29.66,0,.62-.21,1.15.28,1.66.3.32,1.36,0,1.67-.12s1.14-.32,1.14-.75l0-2.17a5.88,5.88,0,0,0,0-1.92c-.23-.65-1-.62-1.61-.59a14.48,14.48,0,0,0-2,.3c-1.32.29-2.6.72-3.92,1.05l-.6.12a5,5,0,0,1-.63.06,4.24,4.24,0,0,1-1.65-.31,2.79,2.79,0,0,0-1.86.18c-.11,0-1.31.61-.87.79Z" transform="translate(-148.2 -163.95)"/><path class="cls-22" d="M195.65,193.46a5.77,5.77,0,0,0-3.76,1.35,11.16,11.16,0,0,0-2.19,2.78c-.14.23-.28.45-.43.67l-.11.17s-.13.16-.06.08,0,.05-.06.05l1.6-.26.08.06s0,.22,0,0c0,0,0-.15,0-.05l0,0c.08-.1,0,0,0,0s.16-.14,0,0,0,0,.06,0l.21-.15,3.05-2.18,3.52-2.52c.43-.31.82-1,.2-1.34a2.09,2.09,0,0,0-2.06.22c-2.28,1.63-4.6,3.21-6.84,4.89a2.2,2.2,0,0,0-1.12,1.85,1.44,1.44,0,0,0,1.61,1.16,3.08,3.08,0,0,0,2.48-1.46c.35-.51.66-1,1-1.56a8.45,8.45,0,0,1,.56-.78c.1-.12.2-.24.31-.35l.13-.12s.25-.22.13-.12,0,0,0,0l.24-.17.14-.09c-.16.1-.11.06,0,0s.16-.06.16-.07c-.19.06-.22.08-.11.05a.19.19,0,0,1,.1,0c.17-.06-.1,0-.12,0s.49,0,.08,0a2.1,2.1,0,0,0,1.9-.85c.32-.59-.27-1-.84-1Z" transform="translate(-148.2 -163.95)"/><path class="cls-22" d="M151.08,217.75a85.06,85.06,0,0,1,13.16-.5,2,2,0,0,0,1.89-.88c.29-.61-.26-1.16-.88-1.19a89.62,89.62,0,0,0-13.9.49c-.63.07-1.52.43-1.6,1.15s.77,1,1.33.93Z" transform="translate(-148.2 -163.95)"/><path class="cls-22" d="M152.13,227.84c3.07.63,6.16,0,9.16-.65l2.08-.47a7.4,7.4,0,0,0,2.22-.66,1.76,1.76,0,0,0,.86-1.78c0-.78,0-1.57,0-2.35,0-.59-1.34-.4-1.64-.32-.53.14-1.27.46-1.26,1.1s0,1,0,1.57c0,.3.11,1-.07,1.25l.45-.39c.34-.12.36-.13,0,0l-.22,0-.66.15-1.31.3c-.86.19-1.73.4-2.61.56a13.7,13.7,0,0,1-5.26.16,2.53,2.53,0,0,0-2,.55c-.45.4-.34.87.26,1Z" transform="translate(-148.2 -163.95)"/><path class="cls-22" d="M215.52,218A192.24,192.24,0,0,1,255,212.45c1.7-.07,2.18-2.35.21-2.28a197.22,197.22,0,0,0-40.3,5.69c-1.81.45-1.24,2.6.58,2.14Z" transform="translate(-148.2 -163.95)"/><path class="cls-22" d="M270.05,219.65c16.23-.29,31.14-7.26,46.86-10.37.38-.08,1.65-.34,1.67-.88s-.82-.5-1.19-.42c-15.44,3.05-30.22,10-46.14,10.3-.53,0-1.63.21-1.92.73s.25.65.72.64Z" transform="translate(-148.2 -163.95)"/><path class="cls-22" d="M261.3,172.69l28.23-2.9c8.05-.82,16.82-1.57,24.13,2.62,3.83,2.19,7,5.42,11.28,6.83a2.61,2.61,0,0,0,2-.3c.31-.18,1-.78.29-1-3.93-1.3-6.94-4.18-10.4-6.31a26.94,26.94,0,0,0-11.47-3.71,65.33,65.33,0,0,0-12.66.18c-4.76.43-9.52,1-14.28,1.45l-16.71,1.72c-.41,0-1.64.36-1.67.91s.81.55,1.22.51Z" transform="translate(-148.2 -163.95)"/><path class="cls-22" d="M358.87,215h17.37a3.62,3.62,0,0,0,2.05-.55c.4-.3.43-.68-.19-.68H360.74a3.62,3.62,0,0,0-2.05.55c-.4.3-.43.68.18.68Z" transform="translate(-148.2 -163.95)"/><path class="cls-22" d="M350.76,228.38a44.29,44.29,0,0,0,19.64-2.24c.42-.15,1.15-.67.77-1.17s-1.46-.19-1.92,0a38.1,38.1,0,0,1-16.72,1.86,2.55,2.55,0,0,0-2,.55c-.4.38-.39,1,.27,1Z" transform="translate(-148.2 -163.95)"/><path class="cls-23" d="M247.32,209.74a20.85,20.85,0,0,0,10.08-.34l.58-.18c.12,0,.48-.06.16-.06a1.13,1.13,0,0,1-.26,0l-.11-.12a5.1,5.1,0,0,0,1-.55h-7.45a2.39,2.39,0,0,0-1.91.79c-.37.57.31.85.78.85h6.48a6,6,0,0,0,3.16-.51c.7-.4,1.28-1.36.32-1.85a3.77,3.77,0,0,0-2.78.09,16.07,16.07,0,0,1-2.56.58,16.53,16.53,0,0,1-5.74-.25,2.49,2.49,0,0,0-2,.55c-.45.41-.33.89.27,1Z" transform="translate(-148.2 -163.95)"/><path class="cls-23" d="M311.77,202.48c1.08,1.45,3.1,1.71,4.78,1.52a15.78,15.78,0,0,0,2.8-.64,5.14,5.14,0,0,1,2.5-.36l1.72-1.77a14.58,14.58,0,0,0-8.79,1c-.45.2-1.16.79-.73,1.33s1.42.35,1.95.12a9.47,9.47,0,0,1,2.82-.77,9.69,9.69,0,0,1,3,.12,2.29,2.29,0,0,0,2-.55.69.69,0,0,0-.33-1.22,8.29,8.29,0,0,0-3.4.08c-.94.19-1.84.52-2.77.74l-.26,0c.15,0,.15,0,0,0l-.53.06h-.3c-.18,0-.36,0-.53,0,.17,0-.23-.06-.3-.08a1.18,1.18,0,0,1-.36-.15,2.11,2.11,0,0,1-.68-.62c-.68-.92-3.47.13-2.67,1.21Z" transform="translate(-148.2 -163.95)"/><path class="cls-24" d="M250.09,170a15.3,15.3,0,0,1,2-3.33c.2-.26.41-.5.62-.74s.49-.37.59-.56q.39-.23-.48.06a1.71,1.71,0,0,1,.38.13,6.58,6.58,0,0,1,.84.42,51.8,51.8,0,0,0,7.72,3.18l.29-1c-.12.07-.25.12-.11.09a1.88,1.88,0,0,1-.34,0c-.31,0-.63,0-.94,0-.86-.05-1.71-.09-2.57-.07a28.76,28.76,0,0,0-5.39.65l-.52.11c-.84.2.11.16.18.06-.06.08-.26-.78-.25-.89,0-.32.31-.9.63-1a3.24,3.24,0,0,1,1.3.46,11.25,11.25,0,0,1,1.87,1.35l1.94-1.28-6,.22.29,1.09a9.71,9.71,0,0,1,7-.74,2.8,2.8,0,0,0,2-.3c.28-.16,1-.82.29-1a15.31,15.31,0,0,0-11.1,1.35c-.22.12-.66.41-.57.73s.61.36.86.35l6-.23c.33,0,2.7-.65,1.94-1.28-1.82-1.49-3.78-2.63-6.21-2a4.93,4.93,0,0,0-2.71,1.66,2,2,0,0,0-.16,2.41c.81,1,2.35.38,3.37.17a22.84,22.84,0,0,1,3.48-.44c2.48-.11,5.19.57,7.43-.82.28-.18,1-.78.29-1a51.06,51.06,0,0,1-5-1.89c-.8-.36-1.59-.73-2.36-1.12a6.53,6.53,0,0,0-2.32-.87c-3.58-.32-5.95,3.62-7.18,6.44-.25.58,1,.54,1.22.5.57-.08,1.41-.33,1.67-.92Z" transform="translate(-148.2 -163.95)"/><path class="cls-25" d="M254.79,167.24a4.86,4.86,0,0,1,2,.15,6.06,6.06,0,0,1,2,1l2-1.1a48.71,48.71,0,0,0-6.93.81,3.05,3.05,0,0,0-1.58.66c-.31.32.05.5.38.51,2.92.13,5.85.11,8.77-.05a3.86,3.86,0,0,0,1.46-.39c.14-.07.73-.35.61-.6-1.2-2.7-4.44-3.45-7.08-3.92a3.5,3.5,0,0,0-2,.37c-.22.11-1,.66-.34.78,2.41.42,5.45,1.06,6.55,3.54l2.08-1q-4.08.22-8.15,0l-1.2,1.17a42.93,42.93,0,0,1,6.22-.73,3.74,3.74,0,0,0,1.6-.46c.15-.1.69-.42.38-.64A7.64,7.64,0,0,0,256,166a3.32,3.32,0,0,0-1.93.7c-.45.47.39.54.69.51Z" transform="translate(-148.2 -163.95)"/></svg>